<?xml version="1.0" encoding="UTF-8"?>
<svg xmlns="http://www.w3.org/2000/svg" xmlns:xlink="http://www.w3.org/1999/xlink" viewBox="0 0 1920 1080">
  <defs>
    <style>
      .g {
        fill: #fff;
      }

      .h {
        isolation: isolate;
      }

      .i {
        clip-path: url(#d);
      }

      .j {
        fill: url(#f);
      }

      .j, .k {
        mix-blend-mode: overlay;
        opacity: .45;
      }

      .k {
        fill: url(#e);
      }

      .l {
        fill: url(#b);
      }

      .m, .n {
        fill: none;
      }

      .n {
        stroke: #fff;
        stroke-miterlimit: 10;
        stroke-width: 3.7px;
      }

      .o {
        fill: url(#c);
      }

      .p {
        mix-blend-mode: soft-light;
        opacity: .1;
      }
    </style>
    <radialGradient id="b" cx="626.98" cy="820.32" fx="626.98" fy="820.32" r="705.69" gradientTransform="translate(0 -5.75)" gradientUnits="userSpaceOnUse">
      <stop offset="0" stop-color="#364e80"/>
      <stop offset="1" stop-color="#192c4c"/>
    </radialGradient>
    <radialGradient id="c" cx="626.98" cy="815.16" fx="626.98" fy="815.16" r="707.18" gradientTransform="matrix(1, 0, 0, 1, 0, 0)" xlink:href="#b"/>
    <clipPath id="d">
      <polygon class="m" points=".27 -957.88 1920 -957.88 1920 80.22 1919.94 518.01 .27 518.01 .27 -957.88"/>
    </clipPath>
    <linearGradient id="e" x1="-197.46" y1="717.79" x2="248.7" y2="271.63" gradientTransform="translate(95.99 -615.84) rotate(-11.21) scale(1.03 1.07) skewX(-5.72)" gradientUnits="userSpaceOnUse">
      <stop offset="0" stop-color="#fff"/>
      <stop offset=".14" stop-color="#fff" stop-opacity=".99"/>
      <stop offset=".27" stop-color="#fff" stop-opacity=".94"/>
      <stop offset=".39" stop-color="#fff" stop-opacity=".87"/>
      <stop offset=".51" stop-color="#fff" stop-opacity=".77"/>
      <stop offset=".63" stop-color="#fff" stop-opacity=".63"/>
      <stop offset=".74" stop-color="#fff" stop-opacity=".47"/>
      <stop offset=".86" stop-color="#fff" stop-opacity=".28"/>
      <stop offset=".97" stop-color="#fff" stop-opacity=".06"/>
      <stop offset="1" stop-color="#fff" stop-opacity="0"/>
    </linearGradient>
    <linearGradient id="f" x1="-221.1" y1="488.62" x2="21.28" y2="246.24" gradientTransform="translate(116.85 -584.92) rotate(-7.33)" xlink:href="#e"/>
  </defs>
  <g class="h">
    <g id="a" data-name="Layer 1">
      <rect class="l" x=".27" y="-3.05" width="1919.73" height="1083.05"/>
      <polygon class="o" points="1426.05 2162.72 .27 2162.72 .27 1440.43 167.69 1082.87 167.71 1080.95 1920 1078.46 1920 1082.87 1920 1082.87 1426.05 2162.72"/>
      <g class="i">
        <path class="k" d="M313.32-422.83h0c24.57,11.38,34.24,42.73,21.6,70.03L-4.25,367.47c-1.28,2.76-4.33,4.07-6.82,2.92l-79.97-37.04c-2.49-1.15-3.47-4.33-2.19-7.09L245.94-394.02c12.64-27.29,42.81-40.19,67.38-28.81Z"/>
        <path class="j" d="M133.81-370.12h0c15.12,7.35,21.42,25.56,14.07,40.68L-21.42,15.99c-.74,1.53-2.59,2.17-4.12,1.42L-74.74-6.5c-1.53-.74-2.17-2.59-1.42-4.12L93.13-356.05c7.35-15.12,25.56-21.42,40.68-14.07Z"/>
        <g class="p">
          <g>
            <polygon class="g" points="1925.43 -64.71 1877.8 -64.71 1853.98 -23.46 1877.8 17.79 1925.43 17.79 1949.25 -23.46 1925.43 -64.71"/>
            <polygon class="g" points="1925.43 26.41 1877.8 26.41 1853.98 67.66 1877.8 108.91 1925.43 108.91 1949.25 67.66 1925.43 26.41"/>
            <polygon class="g" points="1925.43 117.53 1877.8 117.53 1853.98 158.78 1877.8 200.04 1925.43 200.04 1949.25 158.78 1925.43 117.53"/>
            <polygon class="g" points="1925.43 208.65 1877.8 208.65 1853.98 249.9 1877.8 291.16 1925.43 291.16 1949.25 249.9 1925.43 208.65"/>
          </g>
          <g>
            <polygon class="n" points="1849.12 -18.99 1801.48 -18.99 1777.67 22.26 1801.48 63.52 1849.12 63.52 1872.94 22.26 1849.12 -18.99"/>
            <polygon class="g" points="1849.12 72.13 1801.48 72.13 1777.67 113.38 1801.48 154.64 1849.12 154.64 1872.94 113.38 1849.12 72.13"/>
            <polygon class="g" points="1849.12 163.25 1801.48 163.25 1777.67 204.51 1801.48 245.76 1849.12 245.76 1872.94 204.51 1849.12 163.25"/>
            <polygon class="g" points="1849.12 254.37 1801.48 254.37 1777.67 295.63 1801.48 336.88 1849.12 336.88 1872.94 295.63 1849.12 254.37"/>
          </g>
          <g>
            <polygon class="g" points="1772.48 -64.71 1724.84 -64.71 1701.02 -23.46 1724.84 17.79 1772.48 17.79 1796.29 -23.46 1772.48 -64.71"/>
            <polygon class="n" points="1772.48 26.41 1724.84 26.41 1701.02 67.66 1724.84 108.91 1772.48 108.91 1796.29 67.66 1772.48 26.41"/>
            <polygon class="n" points="1772.48 117.53 1724.84 117.53 1701.02 158.78 1724.84 200.04 1772.48 200.04 1796.29 158.78 1772.48 117.53"/>
            <polygon class="n" points="1772.48 299.77 1724.84 299.77 1701.02 341.02 1724.84 382.28 1772.48 382.28 1796.29 341.02 1772.48 299.77"/>
            <polygon class="g" points="1772.48 208.65 1724.84 208.65 1701.02 249.9 1724.84 291.16 1772.48 291.16 1796.29 249.9 1772.48 208.65"/>
          </g>
          <g>
            <polygon class="g" points="1696.16 -18.99 1648.53 -18.99 1624.71 22.26 1648.53 63.52 1696.16 63.52 1719.98 22.26 1696.16 -18.99"/>
            <polygon class="g" points="1696.16 72.13 1648.53 72.13 1624.71 113.38 1648.53 154.64 1696.16 154.64 1719.98 113.38 1696.16 72.13"/>
            <polygon class="g" points="1696.16 163.25 1648.53 163.25 1624.71 204.51 1648.53 245.76 1696.16 245.76 1719.98 204.51 1696.16 163.25"/>
            <polygon class="g" points="1696.16 254.37 1648.53 254.37 1624.71 295.63 1648.53 336.88 1696.16 336.88 1719.98 295.63 1696.16 254.37"/>
          </g>
          <g>
            <polygon class="g" points="1619.52 -64.71 1571.88 -64.71 1548.07 -23.46 1571.88 17.79 1619.52 17.79 1643.34 -23.46 1619.52 -64.71"/>
            <polygon class="g" points="1619.52 26.41 1571.88 26.41 1548.07 67.66 1571.88 108.91 1619.52 108.91 1643.34 67.66 1619.52 26.41"/>
            <polygon class="g" points="1619.52 117.53 1571.88 117.53 1548.07 158.78 1571.88 200.04 1619.52 200.04 1643.34 158.78 1619.52 117.53"/>
            <polygon class="g" points="1619.52 208.65 1571.88 208.65 1548.07 249.9 1571.88 291.16 1619.52 291.16 1643.34 249.9 1619.52 208.65"/>
            <polygon class="g" points="1619.52 299.77 1571.88 299.77 1548.07 341.03 1571.88 382.28 1619.52 382.28 1643.34 341.03 1619.52 299.77"/>
            <polygon class="g" points="1619.52 390.89 1571.88 390.89 1548.07 432.15 1571.88 473.4 1619.52 473.4 1643.34 432.15 1619.52 390.89"/>
          </g>
          <g>
            <polygon class="g" points="1543.2 -18.99 1495.57 -18.99 1471.75 22.26 1495.57 63.52 1543.2 63.52 1567.02 22.26 1543.2 -18.99"/>
            <polygon class="g" points="1543.2 72.13 1495.57 72.13 1471.75 113.38 1495.57 154.64 1543.2 154.64 1567.02 113.38 1543.2 72.13"/>
            <polygon class="n" points="1543.2 163.25 1495.57 163.25 1471.75 204.51 1495.57 245.76 1543.2 245.76 1567.02 204.51 1543.2 163.25"/>
            <polygon class="g" points="1543.2 254.37 1495.57 254.37 1471.75 295.63 1495.57 336.88 1543.2 336.88 1567.02 295.63 1543.2 254.37"/>
          </g>
          <g>
            <polygon class="g" points="1466.56 -64.71 1418.93 -64.71 1395.11 -23.46 1418.93 17.79 1466.56 17.79 1490.38 -23.46 1466.56 -64.71"/>
            <polygon class="g" points="1466.56 26.41 1418.93 26.41 1395.11 67.66 1418.93 108.91 1466.56 108.91 1490.38 67.66 1466.56 26.41"/>
            <polygon class="g" points="1466.56 117.53 1418.93 117.53 1395.11 158.78 1418.93 200.04 1466.56 200.04 1490.38 158.78 1466.56 117.53"/>
            <polygon class="g" points="1466.56 208.65 1418.93 208.65 1395.11 249.9 1418.93 291.16 1466.56 291.16 1490.38 249.9 1466.56 208.65"/>
          </g>
          <g>
            <polygon class="g" points="1390.25 -18.99 1342.61 -18.99 1318.79 22.26 1342.61 63.52 1390.25 63.52 1414.06 22.26 1390.25 -18.99"/>
            <polygon class="g" points="1390.25 72.13 1342.61 72.13 1318.79 113.38 1342.61 154.64 1390.25 154.64 1414.06 113.38 1390.25 72.13"/>
            <polygon class="n" points="1390.25 163.25 1342.61 163.25 1318.79 204.51 1342.61 245.76 1390.25 245.76 1414.06 204.51 1390.25 163.25"/>
            <polygon class="n" points="1390.25 345.49 1342.61 345.49 1318.79 386.75 1342.61 428 1390.25 428 1414.06 386.75 1390.25 345.49"/>
            <polygon class="g" points="1390.25 254.37 1342.61 254.37 1318.79 295.63 1342.61 336.88 1390.25 336.88 1414.06 295.63 1390.25 254.37"/>
          </g>
          <g>
            <polygon class="g" points="1313.6 -64.71 1265.97 -64.71 1242.15 -23.46 1265.97 17.79 1313.6 17.79 1337.42 -23.46 1313.6 -64.71"/>
            <polygon class="g" points="1313.6 26.41 1265.97 26.41 1242.15 67.66 1265.97 108.91 1313.6 108.91 1337.42 67.66 1313.6 26.41"/>
            <polygon class="g" points="1313.6 117.53 1265.97 117.53 1242.15 158.78 1265.97 200.04 1313.6 200.04 1337.42 158.78 1313.6 117.53"/>
            <polygon class="g" points="1313.6 208.65 1265.97 208.65 1242.15 249.9 1265.97 291.16 1313.6 291.16 1337.42 249.9 1313.6 208.65"/>
          </g>
          <g>
            <polygon class="g" points="1237.29 -18.99 1189.65 -18.99 1165.84 22.26 1189.65 63.52 1237.29 63.52 1261.11 22.26 1237.29 -18.99"/>
            <polygon class="g" points="1237.29 72.13 1189.65 72.13 1165.84 113.38 1189.65 154.64 1237.29 154.64 1261.11 113.38 1237.29 72.13"/>
            <polygon class="g" points="1237.29 163.25 1189.65 163.25 1165.84 204.51 1189.65 245.76 1237.29 245.76 1261.11 204.51 1237.29 163.25"/>
            <polygon class="g" points="1237.29 254.37 1189.65 254.37 1165.84 295.63 1189.65 336.88 1237.29 336.88 1261.11 295.63 1237.29 254.37"/>
          </g>
          <g>
            <polygon class="n" points="1160.65 301.54 1113.01 301.54 1089.19 342.8 1113.01 384.05 1160.65 384.05 1184.46 342.8 1160.65 301.54"/>
            <polygon class="g" points="1160.65 -64.71 1113.01 -64.71 1089.19 -23.46 1113.01 17.79 1160.65 17.79 1184.46 -23.46 1160.65 -64.71"/>
            <polygon class="g" points="1160.65 26.41 1113.01 26.41 1089.19 67.66 1113.01 108.91 1160.65 108.91 1184.46 67.66 1160.65 26.41"/>
            <polygon class="g" points="1160.65 117.53 1113.01 117.53 1089.19 158.78 1113.01 200.04 1160.65 200.04 1184.46 158.78 1160.65 117.53"/>
            <polygon class="g" points="1160.65 208.65 1113.01 208.65 1089.19 249.9 1113.01 291.16 1160.65 291.16 1184.46 249.9 1160.65 208.65"/>
          </g>
          <g>
            <polygon class="g" points="1084.33 -18.99 1036.7 -18.99 1012.88 22.26 1036.7 63.52 1084.33 63.52 1108.15 22.26 1084.33 -18.99"/>
            <polygon class="g" points="1084.33 72.13 1036.7 72.13 1012.88 113.38 1036.7 154.64 1084.33 154.64 1108.15 113.38 1084.33 72.13"/>
            <polygon class="g" points="1084.33 163.25 1036.7 163.25 1012.88 204.51 1036.7 245.76 1084.33 245.76 1108.15 204.51 1084.33 163.25"/>
            <polygon class="g" points="1084.33 254.37 1036.7 254.37 1012.88 295.63 1036.7 336.88 1084.33 336.88 1108.15 295.63 1084.33 254.37"/>
          </g>
          <g>
            <polygon class="g" points="1007.69 -64.71 960.05 -64.71 936.23 -23.46 960.05 17.79 1007.69 17.79 1031.5 -23.46 1007.69 -64.71"/>
            <polygon class="g" points="1007.69 26.41 960.05 26.41 936.23 67.66 960.05 108.91 1007.69 108.91 1031.5 67.66 1007.69 26.41"/>
            <polygon class="g" points="1007.69 117.53 960.05 117.53 936.23 158.78 960.05 200.04 1007.69 200.04 1031.5 158.78 1007.69 117.53"/>
            <polygon class="n" points="1007.69 208.65 960.05 208.65 936.23 249.9 960.05 291.16 1007.69 291.16 1031.5 249.9 1007.69 208.65"/>
          </g>
          <g>
            <polygon class="g" points="931.37 -18.99 883.74 -18.99 859.92 22.26 883.74 63.52 931.37 63.52 955.19 22.26 931.37 -18.99"/>
            <polygon class="g" points="931.37 72.13 883.74 72.13 859.92 113.38 883.74 154.64 931.37 154.64 955.19 113.38 931.37 72.13"/>
            <polygon class="g" points="931.37 163.25 883.74 163.25 859.92 204.51 883.74 245.76 931.37 245.76 955.19 204.51 931.37 163.25"/>
            <polygon class="g" points="931.37 254.37 883.74 254.37 859.92 295.63 883.74 336.88 931.37 336.88 955.19 295.63 931.37 254.37"/>
            <polygon class="g" points="931.37 346.28 883.74 346.28 859.92 387.53 883.74 428.78 931.37 428.78 955.19 387.53 931.37 346.28"/>
          </g>
          <g>
            <polygon class="g" points="854.73 -64.71 807.09 -64.71 783.28 -23.46 807.09 17.79 854.73 17.79 878.55 -23.46 854.73 -64.71"/>
            <polygon class="g" points="854.73 26.41 807.09 26.41 783.28 67.66 807.09 108.91 854.73 108.91 878.55 67.66 854.73 26.41"/>
            <polygon class="g" points="854.73 117.53 807.09 117.53 783.28 158.78 807.09 200.04 854.73 200.04 878.55 158.78 854.73 117.53"/>
            <polygon class="g" points="854.73 208.65 807.09 208.65 783.28 249.9 807.09 291.16 854.73 291.16 878.55 249.9 854.73 208.65"/>
          </g>
          <g>
            <polygon class="g" points="778.41 -18.99 730.78 -18.99 706.96 22.26 730.78 63.52 778.41 63.52 802.23 22.26 778.41 -18.99"/>
            <polygon class="n" points="778.41 72.13 730.78 72.13 706.96 113.38 730.78 154.64 778.41 154.64 802.23 113.38 778.41 72.13"/>
            <polygon class="g" points="778.41 163.25 730.78 163.25 706.96 204.51 730.78 245.76 778.41 245.76 802.23 204.51 778.41 163.25"/>
            <polygon class="n" points="778.41 254.37 730.78 254.37 706.96 295.63 730.78 336.88 778.41 336.88 802.23 295.63 778.41 254.37"/>
          </g>
          <g>
            <polygon class="g" points="701.77 -64.71 654.14 -64.71 630.32 -23.46 654.14 17.79 701.77 17.79 725.59 -23.46 701.77 -64.71"/>
            <polygon class="g" points="701.77 26.41 654.14 26.41 630.32 67.66 654.14 108.91 701.77 108.91 725.59 67.66 701.77 26.41"/>
            <polygon class="g" points="701.77 117.53 654.14 117.53 630.32 158.78 654.14 200.04 701.77 200.04 725.59 158.78 701.77 117.53"/>
            <polygon class="g" points="701.77 208.65 654.14 208.65 630.32 249.9 654.14 291.16 701.77 291.16 725.59 249.9 701.77 208.65"/>
          </g>
          <g>
            <polygon class="n" points="625.46 -18.99 577.82 -18.99 554 22.26 577.82 63.52 625.46 63.52 649.28 22.26 625.46 -18.99"/>
            <polygon class="g" points="625.46 72.13 577.82 72.13 554 113.38 577.82 154.64 625.46 154.64 649.28 113.38 625.46 72.13"/>
            <polygon class="g" points="625.46 163.25 577.82 163.25 554 204.51 577.82 245.76 625.46 245.76 649.28 204.51 625.46 163.25"/>
          </g>
          <g>
            <polygon class="g" points="548.81 -64.71 501.18 -64.71 477.36 -23.46 501.18 17.79 548.81 17.79 572.63 -23.46 548.81 -64.71"/>
            <polygon class="g" points="548.81 26.41 501.18 26.41 477.36 67.66 501.18 108.91 548.81 108.91 572.63 67.66 548.81 26.41"/>
            <polygon class="g" points="548.81 117.53 501.18 117.53 477.36 158.78 501.18 200.04 548.81 200.04 572.63 158.78 548.81 117.53"/>
            <polygon class="g" points="548.81 208.65 501.18 208.65 477.36 249.9 501.18 291.16 548.81 291.16 572.63 249.9 548.81 208.65"/>
          </g>
          <g>
            <polygon class="g" points="472.5 -18.99 424.86 -18.99 401.05 22.26 424.86 63.52 472.5 63.52 496.32 22.26 472.5 -18.99"/>
            <polygon class="g" points="472.5 72.13 424.86 72.13 401.05 113.38 424.86 154.64 472.5 154.64 496.32 113.38 472.5 72.13"/>
            <polygon class="g" points="472.5 163.25 424.86 163.25 401.05 204.51 424.86 245.76 472.5 245.76 496.32 204.51 472.5 163.25"/>
            <polygon class="g" points="472.5 254.37 424.86 254.37 401.05 295.63 424.86 336.88 472.5 336.88 496.32 295.63 472.5 254.37"/>
          </g>
          <g>
            <polygon class="g" points="395.86 -64.71 348.22 -64.71 324.4 -23.46 348.22 17.79 395.86 17.79 419.67 -23.46 395.86 -64.71"/>
            <polygon class="g" points="395.86 26.41 348.22 26.41 324.4 67.66 348.22 108.91 395.86 108.91 419.67 67.66 395.86 26.41"/>
            <polygon class="g" points="395.86 117.53 348.22 117.53 324.4 158.78 348.22 200.04 395.86 200.04 419.67 158.78 395.86 117.53"/>
            <polygon class="g" points="395.86 208.65 348.22 208.65 324.4 249.9 348.22 291.16 395.86 291.16 419.67 249.9 395.86 208.65"/>
          </g>
          <g>
            <polygon class="g" points="319.54 -18.99 271.91 -18.99 248.09 22.26 271.91 63.52 319.54 63.52 343.36 22.26 319.54 -18.99"/>
            <polygon class="g" points="319.54 72.13 271.91 72.13 248.09 113.38 271.91 154.64 319.54 154.64 343.36 113.38 319.54 72.13"/>
            <polygon class="g" points="319.54 163.25 271.91 163.25 248.09 204.51 271.91 245.76 319.54 245.76 343.36 204.51 319.54 163.25"/>
            <polygon class="g" points="319.54 254.37 271.91 254.37 248.09 295.63 271.91 336.88 319.54 336.88 343.36 295.63 319.54 254.37"/>
          </g>
          <g>
            <polygon class="g" points="242.9 -64.71 195.26 -64.71 171.45 -23.46 195.26 17.79 242.9 17.79 266.72 -23.46 242.9 -64.71"/>
            <polygon class="g" points="242.9 26.41 195.26 26.41 171.45 67.66 195.26 108.91 242.9 108.91 266.72 67.66 242.9 26.41"/>
            <polygon class="g" points="242.9 117.53 195.26 117.53 171.45 158.78 195.26 200.04 242.9 200.04 266.72 158.78 242.9 117.53"/>
            <polygon class="g" points="242.9 208.65 195.26 208.65 171.45 249.9 195.26 291.16 242.9 291.16 266.72 249.9 242.9 208.65"/>
            <polygon class="g" points="242.9 299.53 195.26 299.53 171.45 340.78 195.26 382.04 242.9 382.04 266.72 340.78 242.9 299.53"/>
          </g>
          <g>
            <polygon class="g" points="166.58 -18.99 118.95 -18.99 95.13 22.26 118.95 63.52 166.58 63.52 190.4 22.26 166.58 -18.99"/>
            <polygon class="g" points="166.58 72.13 118.95 72.13 95.13 113.38 118.95 154.64 166.58 154.64 190.4 113.38 166.58 72.13"/>
            <polygon class="g" points="166.58 163.25 118.95 163.25 95.13 204.51 118.95 245.76 166.58 245.76 190.4 204.51 166.58 163.25"/>
            <polygon class="g" points="166.58 254.37 118.95 254.37 95.13 295.63 118.95 336.88 166.58 336.88 190.4 295.63 166.58 254.37"/>
          </g>
          <g>
            <polygon class="g" points="89.94 -64.71 42.31 -64.71 18.49 -23.46 42.31 17.79 89.94 17.79 113.76 -23.46 89.94 -64.71"/>
            <polygon class="g" points="89.94 26.41 42.31 26.41 18.49 67.66 42.31 108.91 89.94 108.91 113.76 67.66 89.94 26.41"/>
            <polygon class="g" points="89.94 117.53 42.31 117.53 18.49 158.78 42.31 200.04 89.94 200.04 113.76 158.78 89.94 117.53"/>
            <polygon class="g" points="89.94 208.65 42.31 208.65 18.49 249.9 42.31 291.16 89.94 291.16 113.76 249.9 89.94 208.65"/>
          </g>
          <g>
            <polygon class="g" points="13.63 -18.99 -34.01 -18.99 -57.83 22.26 -34.01 63.52 13.63 63.52 37.44 22.26 13.63 -18.99"/>
            <polygon class="g" points="13.63 72.13 -34.01 72.13 -57.83 113.38 -34.01 154.64 13.63 154.64 37.44 113.38 13.63 72.13"/>
            <polygon class="g" points="13.63 163.25 -34.01 163.25 -57.83 204.51 -34.01 245.76 13.63 245.76 37.44 204.51 13.63 163.25"/>
            <polygon class="g" points="13.63 254.37 -34.01 254.37 -57.83 295.63 -34.01 336.88 13.63 336.88 37.44 295.63 13.63 254.37"/>
          </g>
        </g>
      </g>
    </g>
  </g>
</svg>