<?xml version="1.0" encoding="UTF-8"?>
<svg xmlns="http://www.w3.org/2000/svg" xmlns:xlink="http://www.w3.org/1999/xlink" viewBox="0 0 1920 1080">
  <defs>
    <style>
      .l {
        fill: #fff;
      }

      .m {
        fill: url(#e);
        mix-blend-mode: screen;
        opacity: .51;
      }

      .n {
        isolation: isolate;
      }

      .o {
        clip-path: url(#d);
      }

      .p {
        fill: url(#f);
      }

      .p, .q, .r, .s {
        mix-blend-mode: overlay;
      }

      .p, .q, .s {
        opacity: .45;
      }

      .q {
        fill: url(#h);
      }

      .t {
        fill: #f27b15;
      }

      .u {
        fill: url(#b);
      }

      .v, .w {
        fill: none;
      }

      .w {
        stroke: #fff;
        stroke-miterlimit: 10;
        stroke-width: 3.7px;
      }

      .r {
        fill: url(#i);
        opacity: .27;
      }

      .x {
        fill: url(#c);
      }

      .s {
        fill: url(#g);
      }

      .y {
        filter: url(#j);
      }

      .z {
        mix-blend-mode: soft-light;
        opacity: .1;
      }
    </style>
    <radialGradient id="b" cx="626.98" cy="1900.32" fx="626.98" fy="1900.32" r="705.69" gradientTransform="translate(0 -8.95)" gradientUnits="userSpaceOnUse">
      <stop offset="0" stop-color="#364e80"/>
      <stop offset="1" stop-color="#192c4c"/>
    </radialGradient>
    <radialGradient id="c" cx="-339.65" cy="162.99" fx="-339.65" fy="162.99" r="521.38" gradientTransform="translate(1492.47 187.79) scale(1.57 1.13)" xlink:href="#b"/>
    <clipPath id="d">
      <polygon class="v" points=".27 122.12 1920 122.12 1920 1160.22 1919.94 1598.01 .27 1598.01 .27 122.12"/>
    </clipPath>
    <radialGradient id="e" cx="-7639.53" cy="-1241.35" fx="-7639.53" fy="-1241.35" r="559.61" gradientTransform="translate(-5854.53 -370.84) rotate(-180)" gradientUnits="userSpaceOnUse">
      <stop offset="0" stop-color="#f27b15"/>
      <stop offset=".09" stop-color="#ec7816" stop-opacity=".97"/>
      <stop offset=".22" stop-color="#dc731a" stop-opacity=".9"/>
      <stop offset=".38" stop-color="#c26921" stop-opacity=".78"/>
      <stop offset=".54" stop-color="#9e5c2a" stop-opacity=".61"/>
      <stop offset=".72" stop-color="#6f4b35" stop-opacity=".4"/>
      <stop offset=".91" stop-color="#373744" stop-opacity=".14"/>
      <stop offset="1" stop-color="#192c4c" stop-opacity="0"/>
    </radialGradient>
    <linearGradient id="f" x1="-197.46" y1="1797.79" x2="248.7" y2="1351.63" gradientTransform="translate(-19.57 -695.07) rotate(-11.21) scale(1.03 1.07) skewX(-5.72)" gradientUnits="userSpaceOnUse">
      <stop offset="0" stop-color="#fff"/>
      <stop offset=".14" stop-color="#fff" stop-opacity=".99"/>
      <stop offset=".27" stop-color="#fff" stop-opacity=".94"/>
      <stop offset=".39" stop-color="#fff" stop-opacity=".87"/>
      <stop offset=".51" stop-color="#fff" stop-opacity=".77"/>
      <stop offset=".63" stop-color="#fff" stop-opacity=".63"/>
      <stop offset=".74" stop-color="#fff" stop-opacity=".47"/>
      <stop offset=".86" stop-color="#fff" stop-opacity=".28"/>
      <stop offset=".97" stop-color="#fff" stop-opacity=".06"/>
      <stop offset="1" stop-color="#fff" stop-opacity="0"/>
    </linearGradient>
    <linearGradient id="g" x1="-221.1" y1="1568.62" x2="21.28" y2="1326.24" gradientTransform="translate(-20.88 -576.11) rotate(-7.33)" xlink:href="#f"/>
    <linearGradient id="h" x1="2143.85" y1="4096.61" x2="2534.33" y2="3706.13" gradientTransform="translate(4732.58 3853.02) rotate(172.03)" xlink:href="#f"/>
    <linearGradient id="i" x1="2317.05" y1="4114.38" x2="2717.96" y2="3713.47" gradientTransform="translate(4718 3849.55) rotate(172.2)" xlink:href="#f"/>
    <filter id="j" data-name="drop-shadow-1" filterUnits="userSpaceOnUse">
      <feOffset dx="26.15" dy="26.15"/>
      <feGaussianBlur result="k" stdDeviation="18.68"/>
      <feFlood flood-color="#07181e" flood-opacity=".45"/>
      <feComposite in2="k" operator="in"/>
      <feComposite in="SourceGraphic"/>
    </filter>
  </defs>
  <g class="n">
    <g id="a" data-name="Layer 1">
      <rect class="u" x=".27" y="1076.95" width="1919.73" height="1083.05"/>
      <rect class="x" x=".27" y="122.12" width="1919.73" height="957.87"/>
      <g class="o">
        <path class="m" d="M1223.38,837.23c0-221.03,179.18-400.21,400.21-400.21s400.21,179.18,400.21,400.21c0,91.29-30.56,175.43-82.02,242.77l-636.41-.04c-51.43-67.33-81.98-151.46-81.98-242.73Z"/>
        <path class="p" d="M313.32,657.17h0c24.57,11.38,34.24,42.73,21.6,70.03L-4.25,1447.47c-1.28,2.76-4.33,4.07-6.82,2.92l-79.97-37.04c-2.49-1.15-3.47-4.33-2.19-7.09L245.94,685.98c12.64-27.29,42.81-40.19,67.38-28.81Z"/>
        <path class="s" d="M133.81,709.88h0c15.12,7.35,21.42,25.56,14.07,40.68L-21.42,1095.99c-.74,1.53-2.59,2.17-4.12,1.42l-49.21-23.91c-1.53-.74-2.17-2.59-1.42-4.12L93.13,723.95c7.35-15.12,25.56-21.42,40.68-14.07Z"/>
        <path class="q" d="M1766.75,576.34h0c-24.49-11.56-34.96-40.79-23.4-65.27L2009.85-48.43c1.17-2.48,4.13-3.54,6.61-2.37l79.7,37.63c2.48,1.17,3.54,4.13,2.37,6.61l-266.5,559.5c-11.56,24.49-40.79,34.96-65.27,23.4Z"/>
        <path class="r" d="M1581.27,584.41h0c-15.18-7.22-21.63-25.38-14.41-40.56L1848.92-56.76c.73-1.54,2.57-2.19,4.11-1.46l49.4,23.5c1.54,.73,2.19,2.57,1.46,4.11l-282.05,600.62c-7.22,15.18-25.38,21.63-40.56,14.41Z"/>
        <g class="z">
          <g>
            <polygon class="l" points="1925.43 104.08 1877.8 104.08 1853.98 145.33 1877.8 186.58 1925.43 186.58 1949.25 145.33 1925.43 104.08"/>
            <polygon class="l" points="1925.43 195.2 1877.8 195.2 1853.98 236.45 1877.8 277.7 1925.43 277.7 1949.25 236.45 1925.43 195.2"/>
            <polygon class="l" points="1925.43 286.32 1877.8 286.32 1853.98 327.57 1877.8 368.82 1925.43 368.82 1949.25 327.57 1925.43 286.32"/>
            <polygon class="l" points="1925.43 377.44 1877.8 377.44 1853.98 418.69 1877.8 459.95 1925.43 459.95 1949.25 418.69 1925.43 377.44"/>
            <polygon class="l" points="1925.43 468.56 1877.8 468.56 1853.98 509.81 1877.8 551.07 1925.43 551.07 1949.25 509.81 1925.43 468.56"/>
            <polygon class="l" points="1925.43 559.68 1877.8 559.68 1853.98 600.93 1877.8 642.19 1925.43 642.19 1949.25 600.93 1925.43 559.68"/>
            <polygon class="l" points="1925.43 650.8 1877.8 650.8 1853.98 692.06 1877.8 733.31 1925.43 733.31 1949.25 692.06 1925.43 650.8"/>
            <polygon class="l" points="1925.43 741.92 1877.8 741.92 1853.98 783.18 1877.8 824.43 1925.43 824.43 1949.25 783.18 1925.43 741.92"/>
            <polygon class="l" points="1925.43 833.04 1877.8 833.04 1853.98 874.3 1877.8 915.55 1925.43 915.55 1949.25 874.3 1925.43 833.04"/>
            <polygon class="l" points="1925.43 924.17 1877.8 924.17 1853.98 965.42 1877.8 1006.67 1925.43 1006.67 1949.25 965.42 1925.43 924.17"/>
            <polygon class="l" points="1925.43 1015.29 1877.8 1015.29 1853.98 1056.54 1877.8 1097.79 1925.43 1097.79 1949.25 1056.54 1925.43 1015.29"/>
          </g>
          <g>
            <polygon class="l" points="1849.12 149.8 1801.48 149.8 1777.67 191.05 1801.48 232.3 1849.12 232.3 1872.94 191.05 1849.12 149.8"/>
            <polygon class="l" points="1849.12 240.92 1801.48 240.92 1777.67 282.17 1801.48 323.43 1849.12 323.43 1872.94 282.17 1849.12 240.92"/>
            <polygon class="l" points="1849.12 332.04 1801.48 332.04 1777.67 373.29 1801.48 414.55 1849.12 414.55 1872.94 373.29 1849.12 332.04"/>
            <polygon class="l" points="1849.12 423.16 1801.48 423.16 1777.67 464.41 1801.48 505.67 1849.12 505.67 1872.94 464.41 1849.12 423.16"/>
            <polygon class="l" points="1849.12 514.28 1801.48 514.28 1777.67 555.54 1801.48 596.79 1849.12 596.79 1872.94 555.54 1849.12 514.28"/>
            <polygon class="l" points="1849.12 605.4 1801.48 605.4 1777.67 646.66 1801.48 687.91 1849.12 687.91 1872.94 646.66 1849.12 605.4"/>
            <polygon class="l" points="1849.12 696.53 1801.48 696.53 1777.67 737.78 1801.48 779.03 1849.12 779.03 1872.94 737.78 1849.12 696.53"/>
            <polygon class="l" points="1849.12 787.65 1801.48 787.65 1777.67 828.9 1801.48 870.15 1849.12 870.15 1872.94 828.9 1849.12 787.65"/>
            <polygon class="l" points="1849.12 878.77 1801.48 878.77 1777.67 920.02 1801.48 961.27 1849.12 961.27 1872.94 920.02 1849.12 878.77"/>
            <polygon class="l" points="1849.12 969.89 1801.48 969.89 1777.67 1011.14 1801.48 1052.4 1849.12 1052.4 1872.94 1011.14 1849.12 969.89"/>
            <polygon class="w" points="1849.12 1061.01 1801.48 1061.01 1777.67 1102.26 1801.48 1143.52 1849.12 1143.52 1872.94 1102.26 1849.12 1061.01"/>
          </g>
          <g>
            <polygon class="l" points="1772.48 104.08 1724.84 104.08 1701.02 145.33 1724.84 186.58 1772.48 186.58 1796.29 145.33 1772.48 104.08"/>
            <polygon class="l" points="1772.48 195.2 1724.84 195.2 1701.02 236.45 1724.84 277.7 1772.48 277.7 1796.29 236.45 1772.48 195.2"/>
            <polygon class="l" points="1772.48 286.32 1724.84 286.32 1701.02 327.57 1724.84 368.82 1772.48 368.82 1796.29 327.57 1772.48 286.32"/>
            <polygon class="l" points="1772.48 377.44 1724.84 377.44 1701.02 418.69 1724.84 459.95 1772.48 459.95 1796.29 418.69 1772.48 377.44"/>
            <polygon class="l" points="1772.48 468.56 1724.84 468.56 1701.02 509.81 1724.84 551.07 1772.48 551.07 1796.29 509.81 1772.48 468.56"/>
            <polygon class="l" points="1772.48 559.68 1724.84 559.68 1701.02 600.93 1724.84 642.19 1772.48 642.19 1796.29 600.93 1772.48 559.68"/>
            <polygon class="l" points="1772.48 650.8 1724.84 650.8 1701.02 692.06 1724.84 733.31 1772.48 733.31 1796.29 692.06 1772.48 650.8"/>
            <polygon class="l" points="1772.48 741.92 1724.84 741.92 1701.02 783.18 1724.84 824.43 1772.48 824.43 1796.29 783.18 1772.48 741.92"/>
            <polygon class="l" points="1772.48 833.04 1724.84 833.04 1701.02 874.3 1724.84 915.55 1772.48 915.55 1796.29 874.3 1772.48 833.04"/>
            <polygon class="l" points="1772.48 924.17 1724.84 924.17 1701.02 965.42 1724.84 1006.67 1772.48 1006.67 1796.29 965.42 1772.48 924.17"/>
            <polygon class="l" points="1772.48 1015.29 1724.84 1015.29 1701.02 1056.54 1724.84 1097.79 1772.48 1097.79 1796.29 1056.54 1772.48 1015.29"/>
          </g>
          <g>
            <polygon class="l" points="1696.16 149.8 1648.53 149.8 1624.71 191.05 1648.53 232.3 1696.16 232.3 1719.98 191.05 1696.16 149.8"/>
            <polygon class="l" points="1696.16 240.92 1648.53 240.92 1624.71 282.17 1648.53 323.43 1696.16 323.43 1719.98 282.17 1696.16 240.92"/>
            <polygon class="w" points="1696.16 332.04 1648.53 332.04 1624.71 373.29 1648.53 414.55 1696.16 414.55 1719.98 373.29 1696.16 332.04"/>
            <polygon class="l" points="1696.16 423.16 1648.53 423.16 1624.71 464.41 1648.53 505.67 1696.16 505.67 1719.98 464.41 1696.16 423.16"/>
            <polygon class="l" points="1696.16 514.28 1648.53 514.28 1624.71 555.54 1648.53 596.79 1696.16 596.79 1719.98 555.54 1696.16 514.28"/>
            <polygon class="l" points="1696.16 605.4 1648.53 605.4 1624.71 646.66 1648.53 687.91 1696.16 687.91 1719.98 646.66 1696.16 605.4"/>
            <polygon class="l" points="1696.16 696.53 1648.53 696.53 1624.71 737.78 1648.53 779.03 1696.16 779.03 1719.98 737.78 1696.16 696.53"/>
            <polygon class="l" points="1696.16 787.65 1648.53 787.65 1624.71 828.9 1648.53 870.15 1696.16 870.15 1719.98 828.9 1696.16 787.65"/>
            <polygon class="l" points="1696.16 878.77 1648.53 878.77 1624.71 920.02 1648.53 961.27 1696.16 961.27 1719.98 920.02 1696.16 878.77"/>
            <polygon class="l" points="1696.16 969.89 1648.53 969.89 1624.71 1011.14 1648.53 1052.4 1696.16 1052.4 1719.98 1011.14 1696.16 969.89"/>
            <polygon class="l" points="1696.16 1061.01 1648.53 1061.01 1624.71 1102.26 1648.53 1143.52 1696.16 1143.52 1719.98 1102.26 1696.16 1061.01"/>
          </g>
          <g>
            <polygon class="l" points="1619.52 104.08 1571.88 104.08 1548.07 145.33 1571.88 186.58 1619.52 186.58 1643.34 145.33 1619.52 104.08"/>
            <polygon class="l" points="1619.52 195.2 1571.88 195.2 1548.07 236.45 1571.88 277.7 1619.52 277.7 1643.34 236.45 1619.52 195.2"/>
            <polygon class="w" points="1619.52 286.32 1571.88 286.32 1548.07 327.57 1571.88 368.82 1619.52 368.82 1643.34 327.57 1619.52 286.32"/>
            <polygon class="l" points="1619.52 377.44 1571.88 377.44 1548.07 418.69 1571.88 459.95 1619.52 459.95 1643.34 418.69 1619.52 377.44"/>
            <polygon class="l" points="1619.52 468.56 1571.88 468.56 1548.07 509.81 1571.88 551.07 1619.52 551.07 1643.34 509.81 1619.52 468.56"/>
            <polygon class="l" points="1619.52 559.68 1571.88 559.68 1548.07 600.93 1571.88 642.19 1619.52 642.19 1643.34 600.93 1619.52 559.68"/>
            <polygon class="l" points="1619.52 650.8 1571.88 650.8 1548.07 692.06 1571.88 733.31 1619.52 733.31 1643.34 692.06 1619.52 650.8"/>
            <polygon class="l" points="1619.52 741.92 1571.88 741.92 1548.07 783.18 1571.88 824.43 1619.52 824.43 1643.34 783.18 1619.52 741.92"/>
            <polygon class="l" points="1619.52 833.04 1571.88 833.04 1548.07 874.3 1571.88 915.55 1619.52 915.55 1643.34 874.3 1619.52 833.04"/>
            <polygon class="l" points="1619.52 924.17 1571.88 924.17 1548.07 965.42 1571.88 1006.67 1619.52 1006.67 1643.34 965.42 1619.52 924.17"/>
            <polygon class="l" points="1619.52 1015.29 1571.88 1015.29 1548.07 1056.54 1571.88 1097.79 1619.52 1097.79 1643.34 1056.54 1619.52 1015.29"/>
          </g>
          <g>
            <polygon class="w" points="1543.2 149.8 1495.57 149.8 1471.75 191.05 1495.57 232.3 1543.2 232.3 1567.02 191.05 1543.2 149.8"/>
            <polygon class="l" points="1543.2 240.92 1495.57 240.92 1471.75 282.17 1495.57 323.43 1543.2 323.43 1567.02 282.17 1543.2 240.92"/>
            <polygon class="l" points="1543.2 332.04 1495.57 332.04 1471.75 373.29 1495.57 414.55 1543.2 414.55 1567.02 373.29 1543.2 332.04"/>
            <polygon class="l" points="1543.2 423.16 1495.57 423.16 1471.75 464.41 1495.57 505.67 1543.2 505.67 1567.02 464.41 1543.2 423.16"/>
            <polygon class="l" points="1543.2 514.28 1495.57 514.28 1471.75 555.54 1495.57 596.79 1543.2 596.79 1567.02 555.54 1543.2 514.28"/>
            <polygon class="l" points="1543.2 605.4 1495.57 605.4 1471.75 646.66 1495.57 687.91 1543.2 687.91 1567.02 646.66 1543.2 605.4"/>
            <polygon class="l" points="1543.2 696.53 1495.57 696.53 1471.75 737.78 1495.57 779.03 1543.2 779.03 1567.02 737.78 1543.2 696.53"/>
            <polygon class="l" points="1543.2 787.65 1495.57 787.65 1471.75 828.9 1495.57 870.15 1543.2 870.15 1567.02 828.9 1543.2 787.65"/>
            <polygon class="l" points="1543.2 878.77 1495.57 878.77 1471.75 920.02 1495.57 961.27 1543.2 961.27 1567.02 920.02 1543.2 878.77"/>
            <polygon class="l" points="1543.2 969.89 1495.57 969.89 1471.75 1011.14 1495.57 1052.4 1543.2 1052.4 1567.02 1011.14 1543.2 969.89"/>
            <polygon class="l" points="1543.2 1061.01 1495.57 1061.01 1471.75 1102.26 1495.57 1143.52 1543.2 1143.52 1567.02 1102.26 1543.2 1061.01"/>
          </g>
          <g>
            <polygon class="l" points="1466.56 104.08 1418.93 104.08 1395.11 145.33 1418.93 186.58 1466.56 186.58 1490.38 145.33 1466.56 104.08"/>
            <polygon class="l" points="1466.56 195.2 1418.93 195.2 1395.11 236.45 1418.93 277.7 1466.56 277.7 1490.38 236.45 1466.56 195.2"/>
            <polygon class="l" points="1466.56 286.32 1418.93 286.32 1395.11 327.57 1418.93 368.82 1466.56 368.82 1490.38 327.57 1466.56 286.32"/>
            <polygon class="l" points="1466.56 377.44 1418.93 377.44 1395.11 418.69 1418.93 459.95 1466.56 459.95 1490.38 418.69 1466.56 377.44"/>
            <polygon class="l" points="1466.56 468.56 1418.93 468.56 1395.11 509.81 1418.93 551.07 1466.56 551.07 1490.38 509.81 1466.56 468.56"/>
            <polygon class="l" points="1466.56 559.68 1418.93 559.68 1395.11 600.93 1418.93 642.19 1466.56 642.19 1490.38 600.93 1466.56 559.68"/>
            <polygon class="l" points="1466.56 650.8 1418.93 650.8 1395.11 692.06 1418.93 733.31 1466.56 733.31 1490.38 692.06 1466.56 650.8"/>
            <polygon class="l" points="1466.56 741.92 1418.93 741.92 1395.11 783.18 1418.93 824.43 1466.56 824.43 1490.38 783.18 1466.56 741.92"/>
            <polygon class="l" points="1466.56 833.04 1418.93 833.04 1395.11 874.3 1418.93 915.55 1466.56 915.55 1490.38 874.3 1466.56 833.04"/>
            <polygon class="l" points="1466.56 924.17 1418.93 924.17 1395.11 965.42 1418.93 1006.67 1466.56 1006.67 1490.38 965.42 1466.56 924.17"/>
            <polygon class="l" points="1466.56 1015.29 1418.93 1015.29 1395.11 1056.54 1418.93 1097.79 1466.56 1097.79 1490.38 1056.54 1466.56 1015.29"/>
          </g>
          <g>
            <polygon class="l" points="1390.25 149.8 1342.61 149.8 1318.79 191.05 1342.61 232.3 1390.25 232.3 1414.06 191.05 1390.25 149.8"/>
            <polygon class="l" points="1390.25 240.92 1342.61 240.92 1318.79 282.17 1342.61 323.43 1390.25 323.43 1414.06 282.17 1390.25 240.92"/>
            <polygon class="l" points="1390.25 332.04 1342.61 332.04 1318.79 373.29 1342.61 414.55 1390.25 414.55 1414.06 373.29 1390.25 332.04"/>
            <polygon class="l" points="1390.25 423.16 1342.61 423.16 1318.79 464.41 1342.61 505.67 1390.25 505.67 1414.06 464.41 1390.25 423.16"/>
            <polygon class="l" points="1390.25 514.28 1342.61 514.28 1318.79 555.54 1342.61 596.79 1390.25 596.79 1414.06 555.54 1390.25 514.28"/>
            <polygon class="l" points="1390.25 605.4 1342.61 605.4 1318.79 646.66 1342.61 687.91 1390.25 687.91 1414.06 646.66 1390.25 605.4"/>
            <polygon class="l" points="1390.25 696.53 1342.61 696.53 1318.79 737.78 1342.61 779.03 1390.25 779.03 1414.06 737.78 1390.25 696.53"/>
            <polygon class="l" points="1390.25 787.65 1342.61 787.65 1318.79 828.9 1342.61 870.15 1390.25 870.15 1414.06 828.9 1390.25 787.65"/>
            <polygon class="l" points="1390.25 878.77 1342.61 878.77 1318.79 920.02 1342.61 961.27 1390.25 961.27 1414.06 920.02 1390.25 878.77"/>
            <polygon class="l" points="1390.25 969.89 1342.61 969.89 1318.79 1011.14 1342.61 1052.4 1390.25 1052.4 1414.06 1011.14 1390.25 969.89"/>
            <polygon class="l" points="1390.25 1061.01 1342.61 1061.01 1318.79 1102.26 1342.61 1143.52 1390.25 1143.52 1414.06 1102.26 1390.25 1061.01"/>
          </g>
          <g>
            <polygon class="l" points="1313.6 104.08 1265.97 104.08 1242.15 145.33 1265.97 186.58 1313.6 186.58 1337.42 145.33 1313.6 104.08"/>
            <polygon class="l" points="1313.6 195.2 1265.97 195.2 1242.15 236.45 1265.97 277.7 1313.6 277.7 1337.42 236.45 1313.6 195.2"/>
            <polygon class="l" points="1313.6 286.32 1265.97 286.32 1242.15 327.57 1265.97 368.82 1313.6 368.82 1337.42 327.57 1313.6 286.32"/>
            <polygon class="l" points="1313.6 377.44 1265.97 377.44 1242.15 418.69 1265.97 459.95 1313.6 459.95 1337.42 418.69 1313.6 377.44"/>
            <polygon class="l" points="1313.6 468.56 1265.97 468.56 1242.15 509.81 1265.97 551.07 1313.6 551.07 1337.42 509.81 1313.6 468.56"/>
            <polygon class="l" points="1313.6 559.68 1265.97 559.68 1242.15 600.93 1265.97 642.19 1313.6 642.19 1337.42 600.93 1313.6 559.68"/>
            <polygon class="l" points="1313.6 650.8 1265.97 650.8 1242.15 692.06 1265.97 733.31 1313.6 733.31 1337.42 692.06 1313.6 650.8"/>
            <polygon class="l" points="1313.6 741.92 1265.97 741.92 1242.15 783.18 1265.97 824.43 1313.6 824.43 1337.42 783.18 1313.6 741.92"/>
            <polygon class="l" points="1313.6 833.04 1265.97 833.04 1242.15 874.3 1265.97 915.55 1313.6 915.55 1337.42 874.3 1313.6 833.04"/>
            <polygon class="l" points="1313.6 924.17 1265.97 924.17 1242.15 965.42 1265.97 1006.67 1313.6 1006.67 1337.42 965.42 1313.6 924.17"/>
            <polygon class="l" points="1313.6 1015.29 1265.97 1015.29 1242.15 1056.54 1265.97 1097.79 1313.6 1097.79 1337.42 1056.54 1313.6 1015.29"/>
          </g>
          <g>
            <polygon class="l" points="1237.29 149.8 1189.65 149.8 1165.84 191.05 1189.65 232.3 1237.29 232.3 1261.11 191.05 1237.29 149.8"/>
            <polygon class="l" points="1237.29 240.92 1189.65 240.92 1165.84 282.17 1189.65 323.43 1237.29 323.43 1261.11 282.17 1237.29 240.92"/>
            <polygon class="l" points="1237.29 332.04 1189.65 332.04 1165.84 373.29 1189.65 414.55 1237.29 414.55 1261.11 373.29 1237.29 332.04"/>
            <polygon class="l" points="1237.29 423.16 1189.65 423.16 1165.84 464.41 1189.65 505.67 1237.29 505.67 1261.11 464.41 1237.29 423.16"/>
            <polygon class="l" points="1237.29 514.28 1189.65 514.28 1165.84 555.54 1189.65 596.79 1237.29 596.79 1261.11 555.54 1237.29 514.28"/>
            <polygon class="l" points="1237.29 605.4 1189.65 605.4 1165.84 646.66 1189.65 687.91 1237.29 687.91 1261.11 646.66 1237.29 605.4"/>
            <polygon class="l" points="1237.29 696.53 1189.65 696.53 1165.84 737.78 1189.65 779.03 1237.29 779.03 1261.11 737.78 1237.29 696.53"/>
            <polygon class="l" points="1237.29 787.65 1189.65 787.65 1165.84 828.9 1189.65 870.15 1237.29 870.15 1261.11 828.9 1237.29 787.65"/>
            <polygon class="l" points="1237.29 878.77 1189.65 878.77 1165.84 920.02 1189.65 961.27 1237.29 961.27 1261.11 920.02 1237.29 878.77"/>
            <polygon class="w" points="1237.29 969.89 1189.65 969.89 1165.84 1011.14 1189.65 1052.4 1237.29 1052.4 1261.11 1011.14 1237.29 969.89"/>
            <polygon class="l" points="1237.29 1061.01 1189.65 1061.01 1165.84 1102.26 1189.65 1143.52 1237.29 1143.52 1261.11 1102.26 1237.29 1061.01"/>
          </g>
          <g>
            <polygon class="l" points="1160.65 104.08 1113.01 104.08 1089.19 145.33 1113.01 186.58 1160.65 186.58 1184.46 145.33 1160.65 104.08"/>
            <polygon class="l" points="1160.65 195.2 1113.01 195.2 1089.19 236.45 1113.01 277.7 1160.65 277.7 1184.46 236.45 1160.65 195.2"/>
            <polygon class="l" points="1160.65 286.32 1113.01 286.32 1089.19 327.57 1113.01 368.82 1160.65 368.82 1184.46 327.57 1160.65 286.32"/>
            <polygon class="l" points="1160.65 377.44 1113.01 377.44 1089.19 418.69 1113.01 459.95 1160.65 459.95 1184.46 418.69 1160.65 377.44"/>
            <polygon class="l" points="1160.65 468.56 1113.01 468.56 1089.19 509.81 1113.01 551.07 1160.65 551.07 1184.46 509.81 1160.65 468.56"/>
            <polygon class="l" points="1160.65 559.68 1113.01 559.68 1089.19 600.93 1113.01 642.19 1160.65 642.19 1184.46 600.93 1160.65 559.68"/>
            <polygon class="l" points="1160.65 650.8 1113.01 650.8 1089.19 692.06 1113.01 733.31 1160.65 733.31 1184.46 692.06 1160.65 650.8"/>
            <polygon class="l" points="1160.65 741.92 1113.01 741.92 1089.19 783.18 1113.01 824.43 1160.65 824.43 1184.46 783.18 1160.65 741.92"/>
            <polygon class="w" points="1160.65 833.04 1113.01 833.04 1089.19 874.3 1113.01 915.55 1160.65 915.55 1184.46 874.3 1160.65 833.04"/>
            <polygon class="l" points="1160.65 924.17 1113.01 924.17 1089.19 965.42 1113.01 1006.67 1160.65 1006.67 1184.46 965.42 1160.65 924.17"/>
            <polygon class="l" points="1160.65 1015.29 1113.01 1015.29 1089.19 1056.54 1113.01 1097.79 1160.65 1097.79 1184.46 1056.54 1160.65 1015.29"/>
          </g>
          <g>
            <polygon class="l" points="1084.33 149.8 1036.7 149.8 1012.88 191.05 1036.7 232.3 1084.33 232.3 1108.15 191.05 1084.33 149.8"/>
            <polygon class="l" points="1084.33 240.92 1036.7 240.92 1012.88 282.17 1036.7 323.43 1084.33 323.43 1108.15 282.17 1084.33 240.92"/>
            <polygon class="l" points="1084.33 332.04 1036.7 332.04 1012.88 373.29 1036.7 414.55 1084.33 414.55 1108.15 373.29 1084.33 332.04"/>
            <polygon class="l" points="1084.33 423.16 1036.7 423.16 1012.88 464.41 1036.7 505.67 1084.33 505.67 1108.15 464.41 1084.33 423.16"/>
            <polygon class="l" points="1084.33 514.28 1036.7 514.28 1012.88 555.54 1036.7 596.79 1084.33 596.79 1108.15 555.54 1084.33 514.28"/>
            <polygon class="w" points="1084.33 605.4 1036.7 605.4 1012.88 646.66 1036.7 687.91 1084.33 687.91 1108.15 646.66 1084.33 605.4"/>
            <polygon class="l" points="1084.33 696.53 1036.7 696.53 1012.88 737.78 1036.7 779.03 1084.33 779.03 1108.15 737.78 1084.33 696.53"/>
            <polygon class="l" points="1084.33 787.65 1036.7 787.65 1012.88 828.9 1036.7 870.15 1084.33 870.15 1108.15 828.9 1084.33 787.65"/>
            <polygon class="l" points="1084.33 878.77 1036.7 878.77 1012.88 920.02 1036.7 961.27 1084.33 961.27 1108.15 920.02 1084.33 878.77"/>
            <polygon class="l" points="1084.33 969.89 1036.7 969.89 1012.88 1011.14 1036.7 1052.4 1084.33 1052.4 1108.15 1011.14 1084.33 969.89"/>
            <polygon class="l" points="1084.33 1061.01 1036.7 1061.01 1012.88 1102.26 1036.7 1143.52 1084.33 1143.52 1108.15 1102.26 1084.33 1061.01"/>
          </g>
          <g>
            <polygon class="l" points="1007.69 104.08 960.05 104.08 936.23 145.33 960.05 186.58 1007.69 186.58 1031.5 145.33 1007.69 104.08"/>
            <polygon class="w" points="1007.69 195.2 960.05 195.2 936.23 236.45 960.05 277.7 1007.69 277.7 1031.5 236.45 1007.69 195.2"/>
            <polygon class="l" points="1007.69 286.32 960.05 286.32 936.23 327.57 960.05 368.82 1007.69 368.82 1031.5 327.57 1007.69 286.32"/>
            <polygon class="l" points="1007.69 377.44 960.05 377.44 936.23 418.69 960.05 459.95 1007.69 459.95 1031.5 418.69 1007.69 377.44"/>
            <polygon class="l" points="1007.69 468.56 960.05 468.56 936.23 509.81 960.05 551.07 1007.69 551.07 1031.5 509.81 1007.69 468.56"/>
            <polygon class="l" points="1007.69 559.68 960.05 559.68 936.23 600.93 960.05 642.19 1007.69 642.19 1031.5 600.93 1007.69 559.68"/>
            <polygon class="l" points="1007.69 650.8 960.05 650.8 936.23 692.06 960.05 733.31 1007.69 733.31 1031.5 692.06 1007.69 650.8"/>
            <polygon class="l" points="1007.69 741.92 960.05 741.92 936.23 783.18 960.05 824.43 1007.69 824.43 1031.5 783.18 1007.69 741.92"/>
            <polygon class="l" points="1007.69 833.04 960.05 833.04 936.23 874.3 960.05 915.55 1007.69 915.55 1031.5 874.3 1007.69 833.04"/>
            <polygon class="l" points="1007.69 924.17 960.05 924.17 936.23 965.42 960.05 1006.67 1007.69 1006.67 1031.5 965.42 1007.69 924.17"/>
            <polygon class="l" points="1007.69 1015.29 960.05 1015.29 936.23 1056.54 960.05 1097.79 1007.69 1097.79 1031.5 1056.54 1007.69 1015.29"/>
          </g>
          <g>
            <polygon class="l" points="931.37 149.8 883.74 149.8 859.92 191.05 883.74 232.3 931.37 232.3 955.19 191.05 931.37 149.8"/>
            <polygon class="l" points="931.37 240.92 883.74 240.92 859.92 282.17 883.74 323.43 931.37 323.43 955.19 282.17 931.37 240.92"/>
            <polygon class="l" points="931.37 332.04 883.74 332.04 859.92 373.29 883.74 414.55 931.37 414.55 955.19 373.29 931.37 332.04"/>
            <polygon class="w" points="931.37 423.16 883.74 423.16 859.92 464.41 883.74 505.67 931.37 505.67 955.19 464.41 931.37 423.16"/>
            <polygon class="l" points="931.37 514.28 883.74 514.28 859.92 555.54 883.74 596.79 931.37 596.79 955.19 555.54 931.37 514.28"/>
            <polygon class="l" points="931.37 605.4 883.74 605.4 859.92 646.66 883.74 687.91 931.37 687.91 955.19 646.66 931.37 605.4"/>
            <polygon class="l" points="931.37 696.53 883.74 696.53 859.92 737.78 883.74 779.03 931.37 779.03 955.19 737.78 931.37 696.53"/>
            <polygon class="l" points="931.37 787.65 883.74 787.65 859.92 828.9 883.74 870.15 931.37 870.15 955.19 828.9 931.37 787.65"/>
            <polygon class="w" points="931.37 878.77 883.74 878.77 859.92 920.02 883.74 961.27 931.37 961.27 955.19 920.02 931.37 878.77"/>
            <polygon class="l" points="931.37 969.89 883.74 969.89 859.92 1011.14 883.74 1052.4 931.37 1052.4 955.19 1011.14 931.37 969.89"/>
            <polygon class="l" points="931.37 1061.01 883.74 1061.01 859.92 1102.26 883.74 1143.52 931.37 1143.52 955.19 1102.26 931.37 1061.01"/>
          </g>
          <g>
            <polygon class="l" points="854.73 104.08 807.09 104.08 783.28 145.33 807.09 186.58 854.73 186.58 878.55 145.33 854.73 104.08"/>
            <polygon class="l" points="854.73 195.2 807.09 195.2 783.28 236.45 807.09 277.7 854.73 277.7 878.55 236.45 854.73 195.2"/>
            <polygon class="l" points="854.73 286.32 807.09 286.32 783.28 327.57 807.09 368.82 854.73 368.82 878.55 327.57 854.73 286.32"/>
            <polygon class="l" points="854.73 377.44 807.09 377.44 783.28 418.69 807.09 459.95 854.73 459.95 878.55 418.69 854.73 377.44"/>
            <polygon class="l" points="854.73 468.56 807.09 468.56 783.28 509.81 807.09 551.07 854.73 551.07 878.55 509.81 854.73 468.56"/>
            <polygon class="l" points="854.73 559.68 807.09 559.68 783.28 600.93 807.09 642.19 854.73 642.19 878.55 600.93 854.73 559.68"/>
            <polygon class="l" points="854.73 650.8 807.09 650.8 783.28 692.06 807.09 733.31 854.73 733.31 878.55 692.06 854.73 650.8"/>
            <polygon class="l" points="854.73 741.92 807.09 741.92 783.28 783.18 807.09 824.43 854.73 824.43 878.55 783.18 854.73 741.92"/>
            <polygon class="l" points="854.73 833.04 807.09 833.04 783.28 874.3 807.09 915.55 854.73 915.55 878.55 874.3 854.73 833.04"/>
            <polygon class="l" points="854.73 924.17 807.09 924.17 783.28 965.42 807.09 1006.67 854.73 1006.67 878.55 965.42 854.73 924.17"/>
            <polygon class="l" points="854.73 1015.29 807.09 1015.29 783.28 1056.54 807.09 1097.79 854.73 1097.79 878.55 1056.54 854.73 1015.29"/>
          </g>
          <g>
            <polygon class="l" points="778.41 149.8 730.78 149.8 706.96 191.05 730.78 232.3 778.41 232.3 802.23 191.05 778.41 149.8"/>
            <polygon class="w" points="778.41 240.92 730.78 240.92 706.96 282.17 730.78 323.43 778.41 323.43 802.23 282.17 778.41 240.92"/>
            <polygon class="w" points="778.41 332.04 730.78 332.04 706.96 373.29 730.78 414.55 778.41 414.55 802.23 373.29 778.41 332.04"/>
            <polygon class="l" points="778.41 423.16 730.78 423.16 706.96 464.41 730.78 505.67 778.41 505.67 802.23 464.41 778.41 423.16"/>
            <polygon class="l" points="778.41 514.28 730.78 514.28 706.96 555.54 730.78 596.79 778.41 596.79 802.23 555.54 778.41 514.28"/>
            <polygon class="w" points="778.41 605.4 730.78 605.4 706.96 646.66 730.78 687.91 778.41 687.91 802.23 646.66 778.41 605.4"/>
            <polygon class="l" points="778.41 696.53 730.78 696.53 706.96 737.78 730.78 779.03 778.41 779.03 802.23 737.78 778.41 696.53"/>
            <polygon class="w" points="778.41 787.65 730.78 787.65 706.96 828.9 730.78 870.15 778.41 870.15 802.23 828.9 778.41 787.65"/>
            <polygon class="l" points="778.41 878.77 730.78 878.77 706.96 920.02 730.78 961.27 778.41 961.27 802.23 920.02 778.41 878.77"/>
            <polygon class="l" points="778.41 969.89 730.78 969.89 706.96 1011.14 730.78 1052.4 778.41 1052.4 802.23 1011.14 778.41 969.89"/>
            <polygon class="l" points="778.41 1061.01 730.78 1061.01 706.96 1102.26 730.78 1143.52 778.41 1143.52 802.23 1102.26 778.41 1061.01"/>
          </g>
          <g>
            <polygon class="l" points="701.77 104.08 654.14 104.08 630.32 145.33 654.14 186.58 701.77 186.58 725.59 145.33 701.77 104.08"/>
            <polygon class="l" points="701.77 195.2 654.14 195.2 630.32 236.45 654.14 277.7 701.77 277.7 725.59 236.45 701.77 195.2"/>
            <polygon class="l" points="701.77 286.32 654.14 286.32 630.32 327.57 654.14 368.82 701.77 368.82 725.59 327.57 701.77 286.32"/>
            <polygon class="l" points="701.77 377.44 654.14 377.44 630.32 418.69 654.14 459.95 701.77 459.95 725.59 418.69 701.77 377.44"/>
            <polygon class="l" points="701.77 468.56 654.14 468.56 630.32 509.81 654.14 551.07 701.77 551.07 725.59 509.81 701.77 468.56"/>
            <polygon class="l" points="701.77 559.68 654.14 559.68 630.32 600.93 654.14 642.19 701.77 642.19 725.59 600.93 701.77 559.68"/>
            <polygon class="l" points="701.77 650.8 654.14 650.8 630.32 692.06 654.14 733.31 701.77 733.31 725.59 692.06 701.77 650.8"/>
            <polygon class="l" points="701.77 741.92 654.14 741.92 630.32 783.18 654.14 824.43 701.77 824.43 725.59 783.18 701.77 741.92"/>
            <polygon class="l" points="701.77 833.04 654.14 833.04 630.32 874.3 654.14 915.55 701.77 915.55 725.59 874.3 701.77 833.04"/>
            <polygon class="l" points="701.77 924.17 654.14 924.17 630.32 965.42 654.14 1006.67 701.77 1006.67 725.59 965.42 701.77 924.17"/>
            <polygon class="l" points="701.77 1015.29 654.14 1015.29 630.32 1056.54 654.14 1097.79 701.77 1097.79 725.59 1056.54 701.77 1015.29"/>
          </g>
          <g>
            <polygon class="l" points="625.46 149.8 577.82 149.8 554 191.05 577.82 232.3 625.46 232.3 649.28 191.05 625.46 149.8"/>
            <polygon class="l" points="625.46 240.92 577.82 240.92 554 282.17 577.82 323.43 625.46 323.43 649.28 282.17 625.46 240.92"/>
            <polygon class="l" points="625.46 332.04 577.82 332.04 554 373.29 577.82 414.55 625.46 414.55 649.28 373.29 625.46 332.04"/>
            <polygon class="l" points="625.46 423.16 577.82 423.16 554 464.41 577.82 505.67 625.46 505.67 649.28 464.41 625.46 423.16"/>
            <polygon class="l" points="625.46 514.28 577.82 514.28 554 555.54 577.82 596.79 625.46 596.79 649.28 555.54 625.46 514.28"/>
            <polygon class="w" points="625.46 605.4 577.82 605.4 554 646.66 577.82 687.91 625.46 687.91 649.28 646.66 625.46 605.4"/>
            <polygon class="l" points="625.46 696.53 577.82 696.53 554 737.78 577.82 779.03 625.46 779.03 649.28 737.78 625.46 696.53"/>
            <polygon class="l" points="625.46 787.65 577.82 787.65 554 828.9 577.82 870.15 625.46 870.15 649.28 828.9 625.46 787.65"/>
            <polygon class="l" points="625.46 878.77 577.82 878.77 554 920.02 577.82 961.27 625.46 961.27 649.28 920.02 625.46 878.77"/>
            <polygon class="l" points="625.46 969.89 577.82 969.89 554 1011.14 577.82 1052.4 625.46 1052.4 649.28 1011.14 625.46 969.89"/>
            <polygon class="w" points="625.46 1061.01 577.82 1061.01 554 1102.26 577.82 1143.52 625.46 1143.52 649.28 1102.26 625.46 1061.01"/>
          </g>
          <g>
            <polygon class="l" points="548.81 104.08 501.18 104.08 477.36 145.33 501.18 186.58 548.81 186.58 572.63 145.33 548.81 104.08"/>
            <polygon class="l" points="548.81 195.2 501.18 195.2 477.36 236.45 501.18 277.7 548.81 277.7 572.63 236.45 548.81 195.2"/>
            <polygon class="l" points="548.81 286.32 501.18 286.32 477.36 327.57 501.18 368.82 548.81 368.82 572.63 327.57 548.81 286.32"/>
            <polygon class="w" points="548.81 377.44 501.18 377.44 477.36 418.69 501.18 459.95 548.81 459.95 572.63 418.69 548.81 377.44"/>
            <polygon class="l" points="548.81 468.56 501.18 468.56 477.36 509.81 501.18 551.07 548.81 551.07 572.63 509.81 548.81 468.56"/>
            <polygon class="l" points="548.81 559.68 501.18 559.68 477.36 600.93 501.18 642.19 548.81 642.19 572.63 600.93 548.81 559.68"/>
            <polygon class="l" points="548.81 650.8 501.18 650.8 477.36 692.06 501.18 733.31 548.81 733.31 572.63 692.06 548.81 650.8"/>
            <polygon class="l" points="548.81 741.92 501.18 741.92 477.36 783.18 501.18 824.43 548.81 824.43 572.63 783.18 548.81 741.92"/>
            <polygon class="l" points="548.81 833.04 501.18 833.04 477.36 874.3 501.18 915.55 548.81 915.55 572.63 874.3 548.81 833.04"/>
            <polygon class="l" points="548.81 924.17 501.18 924.17 477.36 965.42 501.18 1006.67 548.81 1006.67 572.63 965.42 548.81 924.17"/>
            <polygon class="l" points="548.81 1015.29 501.18 1015.29 477.36 1056.54 501.18 1097.79 548.81 1097.79 572.63 1056.54 548.81 1015.29"/>
          </g>
          <g>
            <polygon class="l" points="472.5 149.8 424.86 149.8 401.05 191.05 424.86 232.3 472.5 232.3 496.32 191.05 472.5 149.8"/>
            <polygon class="l" points="472.5 240.92 424.86 240.92 401.05 282.17 424.86 323.43 472.5 323.43 496.32 282.17 472.5 240.92"/>
            <polygon class="l" points="472.5 332.04 424.86 332.04 401.05 373.29 424.86 414.55 472.5 414.55 496.32 373.29 472.5 332.04"/>
            <polygon class="l" points="472.5 423.16 424.86 423.16 401.05 464.41 424.86 505.67 472.5 505.67 496.32 464.41 472.5 423.16"/>
            <polygon class="l" points="472.5 514.28 424.86 514.28 401.05 555.54 424.86 596.79 472.5 596.79 496.32 555.54 472.5 514.28"/>
            <polygon class="l" points="472.5 605.4 424.86 605.4 401.05 646.66 424.86 687.91 472.5 687.91 496.32 646.66 472.5 605.4"/>
            <polygon class="w" points="472.5 696.53 424.86 696.53 401.05 737.78 424.86 779.03 472.5 779.03 496.32 737.78 472.5 696.53"/>
            <polygon class="l" points="472.5 787.65 424.86 787.65 401.05 828.9 424.86 870.15 472.5 870.15 496.32 828.9 472.5 787.65"/>
            <polygon class="l" points="472.5 878.77 424.86 878.77 401.05 920.02 424.86 961.27 472.5 961.27 496.32 920.02 472.5 878.77"/>
            <polygon class="l" points="472.5 969.89 424.86 969.89 401.05 1011.14 424.86 1052.4 472.5 1052.4 496.32 1011.14 472.5 969.89"/>
            <polygon class="l" points="472.5 1061.01 424.86 1061.01 401.05 1102.26 424.86 1143.52 472.5 1143.52 496.32 1102.26 472.5 1061.01"/>
          </g>
          <g>
            <polygon class="l" points="395.86 104.08 348.22 104.08 324.4 145.33 348.22 186.58 395.86 186.58 419.67 145.33 395.86 104.08"/>
            <polygon class="l" points="395.86 195.2 348.22 195.2 324.4 236.45 348.22 277.7 395.86 277.7 419.67 236.45 395.86 195.2"/>
            <polygon class="l" points="395.86 286.32 348.22 286.32 324.4 327.57 348.22 368.82 395.86 368.82 419.67 327.57 395.86 286.32"/>
            <polygon class="l" points="395.86 377.44 348.22 377.44 324.4 418.69 348.22 459.95 395.86 459.95 419.67 418.69 395.86 377.44"/>
            <polygon class="l" points="395.86 468.56 348.22 468.56 324.4 509.81 348.22 551.07 395.86 551.07 419.67 509.81 395.86 468.56"/>
            <polygon class="l" points="395.86 559.68 348.22 559.68 324.4 600.93 348.22 642.19 395.86 642.19 419.67 600.93 395.86 559.68"/>
            <polygon class="l" points="395.86 650.8 348.22 650.8 324.4 692.06 348.22 733.31 395.86 733.31 419.67 692.06 395.86 650.8"/>
            <polygon class="l" points="395.86 741.92 348.22 741.92 324.4 783.18 348.22 824.43 395.86 824.43 419.67 783.18 395.86 741.92"/>
            <polygon class="l" points="395.86 833.04 348.22 833.04 324.4 874.3 348.22 915.55 395.86 915.55 419.67 874.3 395.86 833.04"/>
            <polygon class="l" points="395.86 924.17 348.22 924.17 324.4 965.42 348.22 1006.67 395.86 1006.67 419.67 965.42 395.86 924.17"/>
            <polygon class="l" points="395.86 1015.29 348.22 1015.29 324.4 1056.54 348.22 1097.79 395.86 1097.79 419.67 1056.54 395.86 1015.29"/>
          </g>
          <g>
            <polygon class="l" points="319.54 149.8 271.91 149.8 248.09 191.05 271.91 232.3 319.54 232.3 343.36 191.05 319.54 149.8"/>
            <polygon class="l" points="319.54 240.92 271.91 240.92 248.09 282.17 271.91 323.43 319.54 323.43 343.36 282.17 319.54 240.92"/>
            <polygon class="l" points="319.54 332.04 271.91 332.04 248.09 373.29 271.91 414.55 319.54 414.55 343.36 373.29 319.54 332.04"/>
            <polygon class="l" points="319.54 423.16 271.91 423.16 248.09 464.41 271.91 505.67 319.54 505.67 343.36 464.41 319.54 423.16"/>
            <polygon class="l" points="319.54 514.28 271.91 514.28 248.09 555.54 271.91 596.79 319.54 596.79 343.36 555.54 319.54 514.28"/>
            <polygon class="l" points="319.54 605.4 271.91 605.4 248.09 646.66 271.91 687.91 319.54 687.91 343.36 646.66 319.54 605.4"/>
            <polygon class="l" points="319.54 696.53 271.91 696.53 248.09 737.78 271.91 779.03 319.54 779.03 343.36 737.78 319.54 696.53"/>
            <polygon class="l" points="319.54 787.65 271.91 787.65 248.09 828.9 271.91 870.15 319.54 870.15 343.36 828.9 319.54 787.65"/>
            <polygon class="l" points="319.54 878.77 271.91 878.77 248.09 920.02 271.91 961.27 319.54 961.27 343.36 920.02 319.54 878.77"/>
            <polygon class="l" points="319.54 969.89 271.91 969.89 248.09 1011.14 271.91 1052.4 319.54 1052.4 343.36 1011.14 319.54 969.89"/>
            <polygon class="l" points="319.54 1061.01 271.91 1061.01 248.09 1102.26 271.91 1143.52 319.54 1143.52 343.36 1102.26 319.54 1061.01"/>
          </g>
          <g>
            <polygon class="l" points="242.9 104.08 195.26 104.08 171.45 145.33 195.26 186.58 242.9 186.58 266.72 145.33 242.9 104.08"/>
            <polygon class="l" points="242.9 195.2 195.26 195.2 171.45 236.45 195.26 277.7 242.9 277.7 266.72 236.45 242.9 195.2"/>
            <polygon class="l" points="242.9 286.32 195.26 286.32 171.45 327.57 195.26 368.82 242.9 368.82 266.72 327.57 242.9 286.32"/>
            <polygon class="l" points="242.9 377.44 195.26 377.44 171.45 418.69 195.26 459.95 242.9 459.95 266.72 418.69 242.9 377.44"/>
            <polygon class="l" points="242.9 468.56 195.26 468.56 171.45 509.81 195.26 551.07 242.9 551.07 266.72 509.81 242.9 468.56"/>
            <polygon class="l" points="242.9 559.68 195.26 559.68 171.45 600.93 195.26 642.19 242.9 642.19 266.72 600.93 242.9 559.68"/>
            <polygon class="w" points="242.9 650.8 195.26 650.8 171.45 692.06 195.26 733.31 242.9 733.31 266.72 692.06 242.9 650.8"/>
            <polygon class="l" points="242.9 741.92 195.26 741.92 171.45 783.18 195.26 824.43 242.9 824.43 266.72 783.18 242.9 741.92"/>
            <polygon class="l" points="242.9 833.04 195.26 833.04 171.45 874.3 195.26 915.55 242.9 915.55 266.72 874.3 242.9 833.04"/>
            <polygon class="l" points="242.9 924.17 195.26 924.17 171.45 965.42 195.26 1006.67 242.9 1006.67 266.72 965.42 242.9 924.17"/>
            <polygon class="l" points="242.9 1015.29 195.26 1015.29 171.45 1056.54 195.26 1097.79 242.9 1097.79 266.72 1056.54 242.9 1015.29"/>
          </g>
          <g>
            <polygon class="l" points="166.58 149.8 118.95 149.8 95.13 191.05 118.95 232.3 166.58 232.3 190.4 191.05 166.58 149.8"/>
            <polygon class="l" points="166.58 240.92 118.95 240.92 95.13 282.17 118.95 323.43 166.58 323.43 190.4 282.17 166.58 240.92"/>
            <polygon class="l" points="166.58 332.04 118.95 332.04 95.13 373.29 118.95 414.55 166.58 414.55 190.4 373.29 166.58 332.04"/>
            <polygon class="l" points="166.58 423.16 118.95 423.16 95.13 464.41 118.95 505.67 166.58 505.67 190.4 464.41 166.58 423.16"/>
            <polygon class="l" points="166.58 514.28 118.95 514.28 95.13 555.54 118.95 596.79 166.58 596.79 190.4 555.54 166.58 514.28"/>
            <polygon class="l" points="166.58 605.4 118.95 605.4 95.13 646.66 118.95 687.91 166.58 687.91 190.4 646.66 166.58 605.4"/>
            <polygon class="l" points="166.58 696.53 118.95 696.53 95.13 737.78 118.95 779.03 166.58 779.03 190.4 737.78 166.58 696.53"/>
            <polygon class="l" points="166.58 787.65 118.95 787.65 95.13 828.9 118.95 870.15 166.58 870.15 190.4 828.9 166.58 787.65"/>
            <polygon class="l" points="166.58 878.77 118.95 878.77 95.13 920.02 118.95 961.27 166.58 961.27 190.4 920.02 166.58 878.77"/>
            <polygon class="l" points="166.58 969.89 118.95 969.89 95.13 1011.14 118.95 1052.4 166.58 1052.4 190.4 1011.14 166.58 969.89"/>
            <polygon class="l" points="166.58 1061.01 118.95 1061.01 95.13 1102.26 118.95 1143.52 166.58 1143.52 190.4 1102.26 166.58 1061.01"/>
          </g>
          <g>
            <polygon class="l" points="89.94 104.08 42.31 104.08 18.49 145.33 42.31 186.58 89.94 186.58 113.76 145.33 89.94 104.08"/>
            <polygon class="l" points="89.94 195.2 42.31 195.2 18.49 236.45 42.31 277.7 89.94 277.7 113.76 236.45 89.94 195.2"/>
            <polygon class="l" points="89.94 286.32 42.31 286.32 18.49 327.57 42.31 368.82 89.94 368.82 113.76 327.57 89.94 286.32"/>
            <polygon class="l" points="89.94 377.44 42.31 377.44 18.49 418.69 42.31 459.95 89.94 459.95 113.76 418.69 89.94 377.44"/>
            <polygon class="l" points="89.94 468.56 42.31 468.56 18.49 509.81 42.31 551.07 89.94 551.07 113.76 509.81 89.94 468.56"/>
            <polygon class="l" points="89.94 559.68 42.31 559.68 18.49 600.93 42.31 642.19 89.94 642.19 113.76 600.93 89.94 559.68"/>
            <polygon class="l" points="89.94 650.8 42.31 650.8 18.49 692.06 42.31 733.31 89.94 733.31 113.76 692.06 89.94 650.8"/>
            <polygon class="l" points="89.94 741.92 42.31 741.92 18.49 783.18 42.31 824.43 89.94 824.43 113.76 783.18 89.94 741.92"/>
            <polygon class="l" points="89.94 833.04 42.31 833.04 18.49 874.3 42.31 915.55 89.94 915.55 113.76 874.3 89.94 833.04"/>
            <polygon class="l" points="89.94 924.17 42.31 924.17 18.49 965.42 42.31 1006.67 89.94 1006.67 113.76 965.42 89.94 924.17"/>
            <polygon class="l" points="89.94 1015.29 42.31 1015.29 18.49 1056.54 42.31 1097.79 89.94 1097.79 113.76 1056.54 89.94 1015.29"/>
          </g>
          <g>
            <polygon class="l" points="13.63 149.8 -34.01 149.8 -57.83 191.05 -34.01 232.3 13.63 232.3 37.44 191.05 13.63 149.8"/>
            <polygon class="l" points="13.63 240.92 -34.01 240.92 -57.83 282.17 -34.01 323.43 13.63 323.43 37.44 282.17 13.63 240.92"/>
            <polygon class="l" points="13.63 332.04 -34.01 332.04 -57.83 373.29 -34.01 414.55 13.63 414.55 37.44 373.29 13.63 332.04"/>
            <polygon class="l" points="13.63 423.16 -34.01 423.16 -57.83 464.41 -34.01 505.67 13.63 505.67 37.44 464.41 13.63 423.16"/>
            <polygon class="l" points="13.63 514.28 -34.01 514.28 -57.83 555.54 -34.01 596.79 13.63 596.79 37.44 555.54 13.63 514.28"/>
            <polygon class="l" points="13.63 605.4 -34.01 605.4 -57.83 646.66 -34.01 687.91 13.63 687.91 37.44 646.66 13.63 605.4"/>
            <polygon class="l" points="13.63 696.53 -34.01 696.53 -57.83 737.78 -34.01 779.03 13.63 779.03 37.44 737.78 13.63 696.53"/>
            <polygon class="l" points="13.63 787.65 -34.01 787.65 -57.83 828.9 -34.01 870.15 13.63 870.15 37.44 828.9 13.63 787.65"/>
            <polygon class="l" points="13.63 878.77 -34.01 878.77 -57.83 920.02 -34.01 961.27 13.63 961.27 37.44 920.02 13.63 878.77"/>
            <polygon class="l" points="13.63 969.89 -34.01 969.89 -57.83 1011.14 -34.01 1052.4 13.63 1052.4 37.44 1011.14 13.63 969.89"/>
            <polygon class="l" points="13.63 1061.01 -34.01 1061.01 -57.83 1102.26 -34.01 1143.52 13.63 1143.52 37.44 1102.26 13.63 1061.01"/>
          </g>
        </g>
        <g>
          <path class="l" d="M1762.67,339.26c0-42.29,34.41-76.7,76.7-76.7h254.85v4.44h-254.85c-39.85,0-72.26,32.42-72.26,72.26s32.42,72.26,72.26,72.26h254.85v4.44h-254.85c-42.29,0-76.7-34.41-76.7-76.7Z"/>
          <g>
            <path class="l" d="M1037.19,225.27c-2.89,0-5.24,2.35-5.24,5.24s2.35,5.24,5.24,5.24,5.24-2.35,5.24-5.24-2.35-5.24-5.24-5.24Z"/>
            <path class="l" d="M1093.41,225.27c-2.89,0-5.24,2.35-5.24,5.24s2.35,5.24,5.24,5.24,5.24-2.35,5.24-5.24-2.35-5.24-5.24-5.24Z"/>
            <path class="l" d="M1149.62,225.27c-2.89,0-5.24,2.35-5.24,5.24s2.35,5.24,5.24,5.24,5.24-2.35,5.24-5.24-2.35-5.24-5.24-5.24Z"/>
            <path class="l" d="M1205.84,225.27c-2.89,0-5.24,2.35-5.24,5.24s2.35,5.24,5.24,5.24,5.24-2.35,5.24-5.24-2.35-5.24-5.24-5.24Z"/>
            <path class="l" d="M1262.06,225.27c-2.89,0-5.24,2.35-5.24,5.24s2.35,5.24,5.24,5.24,5.24-2.35,5.24-5.24-2.35-5.24-5.24-5.24Z"/>
            <path class="l" d="M1318.27,225.27c-2.89,0-5.24,2.35-5.24,5.24s2.35,5.24,5.24,5.24,5.24-2.35,5.24-5.24-2.35-5.24-5.24-5.24Z"/>
            <path class="l" d="M1374.49,225.27c-2.89,0-5.24,2.35-5.24,5.24s2.35,5.24,5.24,5.24,5.24-2.35,5.24-5.24-2.35-5.24-5.24-5.24Z"/>
            <path class="l" d="M1430.71,225.27c-2.89,0-5.24,2.35-5.24,5.24s2.35,5.24,5.24,5.24,5.24-2.35,5.24-5.24-2.35-5.24-5.24-5.24Z"/>
            <path class="l" d="M1486.93,225.27c-2.89,0-5.24,2.35-5.24,5.24s2.35,5.24,5.24,5.24,5.24-2.35,5.24-5.24-2.35-5.24-5.24-5.24Z"/>
            <path class="l" d="M1543.14,225.27c-2.89,0-5.24,2.35-5.24,5.24s2.35,5.24,5.24,5.24,5.24-2.35,5.24-5.24-2.35-5.24-5.24-5.24Z"/>
            <path class="l" d="M1037.19,283.08c-2.89,0-5.24,2.35-5.24,5.24s2.35,5.24,5.24,5.24,5.24-2.35,5.24-5.24-2.35-5.24-5.24-5.24Z"/>
            <path class="l" d="M1093.41,283.08c-2.89,0-5.24,2.35-5.24,5.24s2.35,5.24,5.24,5.24,5.24-2.35,5.24-5.24-2.35-5.24-5.24-5.24Z"/>
            <path class="l" d="M1149.62,283.08c-2.89,0-5.24,2.35-5.24,5.24s2.35,5.24,5.24,5.24,5.24-2.35,5.24-5.24-2.35-5.24-5.24-5.24Z"/>
            <path class="l" d="M1205.84,283.08c-2.89,0-5.24,2.35-5.24,5.24s2.35,5.24,5.24,5.24,5.24-2.35,5.24-5.24-2.35-5.24-5.24-5.24Z"/>
            <path class="l" d="M1262.06,283.08c-2.89,0-5.24,2.35-5.24,5.24s2.35,5.24,5.24,5.24,5.24-2.35,5.24-5.24-2.35-5.24-5.24-5.24Z"/>
            <path class="l" d="M1318.27,283.08c-2.89,0-5.24,2.35-5.24,5.24s2.35,5.24,5.24,5.24,5.24-2.35,5.24-5.24-2.35-5.24-5.24-5.24Z"/>
            <path class="l" d="M1374.49,283.08c-2.89,0-5.24,2.35-5.24,5.24s2.35,5.24,5.24,5.24,5.24-2.35,5.24-5.24-2.35-5.24-5.24-5.24Z"/>
            <path class="l" d="M1430.71,283.08c-2.89,0-5.24,2.35-5.24,5.24s2.35,5.24,5.24,5.24,5.24-2.35,5.24-5.24-2.35-5.24-5.24-5.24Z"/>
            <path class="l" d="M1486.93,283.08c-2.89,0-5.24,2.35-5.24,5.24s2.35,5.24,5.24,5.24,5.24-2.35,5.24-5.24-2.35-5.24-5.24-5.24Z"/>
            <path class="l" d="M1543.14,283.08c-2.89,0-5.24,2.35-5.24,5.24s2.35,5.24,5.24,5.24,5.24-2.35,5.24-5.24-2.35-5.24-5.24-5.24Z"/>
          </g>
        </g>
        <g class="y">
          <path class="t" d="M1230.49,183.36c0-12.67,10.27-22.94,22.94-22.94s22.94,10.27,22.94,22.94-10.27,22.94-22.94,22.94-22.94-10.27-22.94-22.94Z"/>
          <circle class="t" cx="702.92" cy="245.89" r="39.59"/>
          <circle class="t" cx="136.29" cy="256.82" r="37.36"/>
          <path class="t" d="M-20.14,385.42c0-11.27,9.14-20.41,20.41-20.41s20.41,9.14,20.41,20.41-9.14,20.41-20.41,20.41-20.41-9.14-20.41-20.41Z"/>
          <circle class="t" cx="1914.44" cy="341.15" r="28.66" transform="translate(15.18 758.59) rotate(-22.5)"/>
          <circle class="t" cx="500.26" cy="206.3" r="25.09"/>
        </g>
      </g>
    </g>
  </g>
</svg>