<svg xmlns="http://www.w3.org/2000/svg" width="123.869" height="158.26" viewBox="0 0 123.869 158.26">
  <g id="Group_209" data-name="Group 209" transform="translate(-1078.723 -4704.643)">
    <g id="Group_208" data-name="Group 208">
      <path id="Path_300" data-name="Path 300" d="M1202.572,4737.159a.337.337,0,0,1-.007-.087,3.915,3.915,0,0,0-.127-.547c-.013-.053-.033-.1-.047-.147a3.147,3.147,0,0,0-.247-.54v-.007a3.442,3.442,0,0,0-.347-.474l-.1-.12a3.221,3.221,0,0,0-.413-.38c-.027-.02-.054-.034-.08-.054a2.045,2.045,0,0,0-.281-.186l-51.143-29.53a3.353,3.353,0,0,0-3.337,0l-51.144,29.53a2.474,2.474,0,0,0-.28.186c-.027.02-.053.034-.08.054a3.773,3.773,0,0,0-.414.38l-.1.12a3.422,3.422,0,0,0-.347.474v.007a3.293,3.293,0,0,0-.247.54c-.013.047-.033.094-.047.147a3.763,3.763,0,0,0-.126.547.343.343,0,0,1-.007.087c-.007.113-.02.227-.02.347v22.943l-13.24,7.647a2.66,2.66,0,0,0-.287.187c-.02.02-.053.033-.073.053a2.862,2.862,0,0,0-.414.381c-.04.04-.073.08-.107.12a3.466,3.466,0,0,0-.34.474v.006h-.007a4.044,4.044,0,0,0-.24.541,1.285,1.285,0,0,0-.047.14,2.673,2.673,0,0,0-.126.554.4.4,0,0,0-.007.087,2.994,2.994,0,0,0-.02.347v59.051a3.327,3.327,0,0,0,1.668,2.89l51.144,29.529a3.3,3.3,0,0,0,1.668.447,3.337,3.337,0,0,0,1.669-.447l51.143-29.529a3.34,3.34,0,0,0,1.669-2.89V4807.1l13.239-7.648a3.325,3.325,0,0,0,1.669-2.889v-59.052C1202.592,4737.386,1202.578,4737.272,1202.572,4737.159Zm-54.461-25.332,44.471,25.679-29.776,17.19-27.934-16.129a3.348,3.348,0,0,0-3.337,0l-13.026,7.521-14.868-8.582Zm-47.807,31.458,11.532,6.653-11.532,6.66Zm-6.673,24.871,6.673-3.857,18.205-10.51,6.673-3.851,8.021-4.631,22.93,13.24,6.673,3.857,14.868,8.582-44.471,25.672-32.9-18.992-6.673-3.851-4.9-2.829Zm87.379,59.959-47.807,27.6-47.807-27.6v-51.35l8.235,4.751,6.673,3.857,31.231,18.025c0,.006,0,.006.007.006.093.054.193.1.293.147a.832.832,0,0,1,.107.053c.04.014.087.027.127.041a3.379,3.379,0,0,0,1.128.206h.006a3.166,3.166,0,0,0,1.161-.22.853.853,0,0,1,.094-.027c.04-.019.087-.046.127-.066a2.014,2.014,0,0,0,.273-.134c.007,0,.007,0,.014-.006l46.138-26.633Zm14.908-33.479-8.234,4.758v-28.408a2.976,2.976,0,0,0-.027-.347.4.4,0,0,0-.007-.087,3.2,3.2,0,0,0-.12-.554c-.02-.047-.033-.093-.053-.14a3.23,3.23,0,0,0-.241-.541l-.006-.006a3.363,3.363,0,0,0-.341-.481c-.033-.033-.066-.073-.106-.113a2.913,2.913,0,0,0-.414-.381.771.771,0,0,0-.073-.053,3.338,3.338,0,0,0-.281-.187l-16.536-9.549,26.439-15.262Z" fill="#fff"/>
    </g>
  </g>
</svg>
