<svg xmlns="http://www.w3.org/2000/svg" width="148.895" height="149.104" viewBox="0 0 148.895 149.104">
  <g id="Group_71" data-name="Group 71" transform="translate(-1066.21 -9041.137)">
    <g id="Group_69" data-name="Group 69">
      <path id="Path_105" data-name="Path 105" d="M1183.543,9190.24H1076.962a10.764,10.764,0,0,1-10.752-10.751V9072.908a10.764,10.764,0,0,1,10.752-10.751h106.581a10.764,10.764,0,0,1,10.751,10.751v106.581A10.763,10.763,0,0,1,1183.543,9190.24Zm-106.581-118.083a.752.752,0,0,0-.752.751v106.581a.752.752,0,0,0,.752.751h106.581a.751.751,0,0,0,.751-.751V9072.908a.752.752,0,0,0-.751-.751Z" fill="#fff"/>
    </g>
    <g id="Group_70" data-name="Group 70">
      <path id="Path_106" data-name="Path 106" d="M1210.1,9121.2a5,5,0,0,1-5-5v-65.067H1140.8a5,5,0,0,1,0-10h64.761a9.557,9.557,0,0,1,9.545,9.545V9116.2A5,5,0,0,1,1210.1,9121.2Zm-4.545-70.067h0Z" fill="#fff"/>
    </g>
    <path id="Path_107" data-name="Path 107" d="M1158,9094.956h-1.067q-10.488,0-20.976,0c-1.857,0-2.88-1.1-2.684-2.853a2.221,2.221,0,0,1,2.118-2.049c.268-.021.538-.012.807-.012h27.5c2.065,0,2.837.769,2.837,2.823q0,13.935,0,27.871a2.459,2.459,0,1,1-4.912.013q-.006-10.6-.006-21.2a8.3,8.3,0,0,0-.1-.925l-.207-.018c-.313.356-.606.731-.941,1.066q-12.378,12.412-24.764,24.813-6.944,6.955-13.88,13.917a3.162,3.162,0,0,1-2.277,1.159,2.409,2.409,0,0,1-2.151-3.578,4.63,4.63,0,0,1,.816-1.026q5.641-5.663,11.3-11.31,13.841-13.854,27.676-27.711C1157.342,9095.68,1157.582,9095.405,1158,9094.956Z" fill="#fff"/>
  </g>
</svg>
