<svg xmlns="http://www.w3.org/2000/svg" width="121.42" height="148.806" viewBox="0 0 121.42 148.806">
  <g id="Group_333" data-name="Group 333" transform="translate(-1079.947 -1474.036)">
    <path id="Path_460" data-name="Path 460" d="M1163.542,1527.443c.127,6.889-2.934,12.293-7.773,16.865-1.958,1.851-4.041,3.571-5.977,5.445a15.484,15.484,0,0,0-4.718,8.96,7.842,7.842,0,0,1-.708,2.211,5.1,5.1,0,0,1-6.25,2.726c-2.615-.75-3.712-2.671-3.235-5.492.737-4.362,3.012-7.937,5.854-11.149,1.944-2.2,4.17-4.145,6.291-6.182a26.327,26.327,0,0,0,5.773-7.308c3.742-7.68-.579-15.945-9.029-17.235-6.81-1.039-12.451.9-16.631,6.58a5.582,5.582,0,0,1-5.9,2.256c-3.274-.928-4.483-4.519-2.494-7.549a22.137,22.137,0,0,1,5.413-5.668,26.874,26.874,0,0,1,14.19-5.131,26.572,26.572,0,0,1,13.8,2.126,18.644,18.644,0,0,1,11.1,15.161C1163.394,1525.181,1163.446,1526.315,1163.542,1527.443Z" fill="#fff"/>
    <path id="Path_461" data-name="Path 461" d="M1140.619,1589.992a6.444,6.444,0,0,1-6.7-6.7,6.711,6.711,0,1,1,6.7,6.7Z" fill="#fff"/>
    <path id="Path_462" data-name="Path 462" d="M1140.692,1474.036c16.366.012,30.419,5.839,42.366,16.908a55.73,55.73,0,0,1,17.261,32.464,69.448,69.448,0,0,1,.921,16.1,61.39,61.39,0,0,1-5.48,21.076,117.918,117.918,0,0,1-16.84,26.545c-9.4,11.537-20.07,21.814-31.266,31.571-.94.819-1.879,1.641-2.836,2.44-2.713,2.265-5.764,2.29-8.415-.07-5.16-4.593-10.348-9.16-15.371-13.9a202.456,202.456,0,0,1-20.369-22.17c-6.77-8.622-12.672-17.763-16.619-28.058a57.478,57.478,0,0,1-4.1-20.462c-.051-12.614,2.422-24.6,9.573-35.213a60.866,60.866,0,0,1,35.587-25.318A58.646,58.646,0,0,1,1140.692,1474.036Zm-.338,5.73c-2.956.307-6.262.474-9.5,1.02a54.375,54.375,0,0,0-28.488,14.443c-13.1,12.239-17.375,27.75-16.28,45.1a52.048,52.048,0,0,0,4.715,17.447c4.1,9.406,9.814,17.788,16.268,25.7,9.836,12.055,21.092,22.691,32.854,32.821.638.55,1.007.372,1.519-.068a298.442,298.442,0,0,0,25.025-23.825c7.714-8.373,14.785-17.23,20.367-27.2,6.529-11.663,9.972-23.962,8.137-37.467-.942-6.937-2.526-13.683-6.1-19.72C1178.06,1489.731,1161.762,1480.685,1140.354,1479.766Z" fill="#fff"/>
  </g>
</svg>
