<svg xmlns="http://www.w3.org/2000/svg" width="149" height="149.012" viewBox="0 0 149 149.012">
  <g id="Group_247" data-name="Group 247" transform="translate(-1066.157 -3638.683)">
    <path id="Path_352" data-name="Path 352" d="M1140.834,3638.685c17.536.011,33.316,5.208,46.964,16.307,13.806,11.228,22.318,25.719,25.876,43.145a73.442,73.442,0,0,1,1.334,19.391c-1.161,18.332-7.9,34.329-20.656,47.627a70.475,70.475,0,0,1-40.831,21.447c-24.441,3.823-46.084-2.329-64.241-19.339-11.731-10.99-18.858-24.643-21.844-40.449a72.954,72.954,0,0,1-.932-20.7,73.7,73.7,0,0,1,20.406-44.865,71.683,71.683,0,0,1,34.931-20.336A74.58,74.58,0,0,1,1140.834,3638.685Zm-67.629,73.294c-1.144,37.117,29.889,68.208,66.2,68.867,38.5.7,69.394-31.28,68.834-68.838-.536-35.973-30.818-66.359-66.955-66.539C1103.938,3645.283,1073.238,3676.39,1073.2,3711.979Z" fill="#fff"/>
    <path id="Path_353" data-name="Path 353" d="M1129.149,3760.89h1.459q14.254,0,28.508,0c2.58,0,3.991,1.436,3.766,3.8a3.039,3.039,0,0,1-3.008,2.891c-.632.032-1.267.012-1.9.012h-36.61c-2.81,0-3.862-1.053-3.862-3.858q0-19.008,0-38.014c0-2.406,1.3-3.637,3.691-3.5a3.028,3.028,0,0,1,3,3.2c.032,2.034.009,4.068.01,6.1q0,11.553.006,23.108a10.67,10.67,0,0,0,.143,1.253l.278.021c.452-.509.88-1.043,1.36-1.524q20.349-20.391,40.707-40.774,6.008-6.016,12-12.048a4.2,4.2,0,0,1,3.039-1.508,3.287,3.287,0,0,1,2.924,4.887,6.379,6.379,0,0,1-1.115,1.4q-7.767,7.8-15.555,15.568-18.805,18.825-37.606,37.654C1130.037,3759.907,1129.711,3760.283,1129.149,3760.89Z" fill="#fff"/>
    <path id="Path_354" data-name="Path 354" d="M1152.171,3665.515h-1.457q-14.3,0-28.608,0c-2.533,0-3.928-1.5-3.662-3.89a3.032,3.032,0,0,1,2.89-2.8c.365-.029.733-.016,1.1-.016h37.51c2.817,0,3.87,1.049,3.87,3.85q0,19.007,0,38.014c0,2.3-1.2,3.54-3.385,3.526-2.109-.014-3.313-1.271-3.315-3.509q-.009-14.454-.009-28.91a11.033,11.033,0,0,0-.141-1.262l-.282-.025c-.427.487-.828,1-1.283,1.456q-16.884,16.926-33.777,33.843-9.469,9.486-18.931,18.981a4.314,4.314,0,0,1-3.106,1.581,3.285,3.285,0,0,1-2.934-4.88,6.33,6.33,0,0,1,1.113-1.4q7.7-7.723,15.413-15.427,18.876-18.9,37.748-37.795C1151.274,3666.5,1151.6,3666.127,1152.171,3665.515Z" fill="#fff"/>
  </g>
</svg>
