<svg xmlns="http://www.w3.org/2000/svg" width="178.284" height="170.563" viewBox="0 0 178.284 170.563">
  <g id="Group_149" data-name="Group 149" transform="translate(-1051.515 -6869.407)">
    <path id="Path_213" data-name="Path 213" d="M1108.264,6921.361c2.522,0,5.044-.008,7.565,0,2.379.01,3.92,1.1,4.44,3.4,1.114,4.906,2.181,9.823,3.146,14.76a5.457,5.457,0,0,1-1.646,5.2c-3.364,3.295-6.633,6.687-9.952,10.027-.554.557-.806,1.009-.3,1.824,7.617,12.3,17.292,22.511,29.986,29.691a1.47,1.47,0,0,0,2.164-.281c3.163-3.358,6.4-6.644,9.591-9.976a5.967,5.967,0,0,1,6.066-1.862c4.115.95,8.253,1.8,12.38,2.7,2.918.636,4.32,2.359,4.324,5.316q.01,7.137,0,14.273c-.008,3.4-2.008,5.418-5.43,5.383a61.78,61.78,0,0,1-29.984-8.439c-18.978-10.672-32.88-25.91-41.09-46.158a53.175,53.175,0,0,1-3.953-20.72c.035-3.272,1.862-5.113,5.132-5.132C1103.221,6921.349,1105.743,6921.361,1108.264,6921.361Zm-.768,28.18c3.14-3.123,6.048-5.988,8.9-8.906a1.7,1.7,0,0,0,.152-1.289c-.678-3.445-1.419-6.878-2.093-10.324a1.211,1.211,0,0,0-1.438-1.145c-3.187.047-6.376.073-9.561-.009-1.232-.031-1.52.5-1.334,1.525.612,3.355,1.056,6.758,1.933,10.044C1104.956,6942.8,1106.289,6946.053,1107.5,6949.541Zm41.419,40.587a55.457,55.457,0,0,0,20.449,5.03c0-3.943.02-7.688-.041-11.432-.005-.268-.569-.681-.933-.765a57.92,57.92,0,0,1-6.66-1.467c-2.969-1.07-4.921-.17-6.781,2.176C1153.166,6985.919,1151.031,6987.891,1148.915,6990.128Z" fill="#fff"/>
    <path id="Path_214" data-name="Path 214" d="M1139.524,6921.42a38.776,38.776,0,0,1,20.485,8.313c8.692,6.982,13.947,15.925,15.245,27.084.255,2.192-.638,3.566-2.556,3.868a3.468,3.468,0,0,1-3.973-3.181,32.9,32.9,0,0,0-4.262-12.453c-5.673-9.328-13.771-15.17-24.662-16.9-2.623-.418-3.789-1.61-3.682-3.83C1136.206,6922.488,1137.413,6921.38,1139.524,6921.42Z" fill="#fff"/>
    <path id="Path_215" data-name="Path 215" d="M1136.115,6944.067c-.005-2.554,1.709-3.82,4.319-3.124a21.326,21.326,0,0,1,9.846,5.741,22.01,22.01,0,0,1,5.613,9.608c.612,2.173-.052,3.614-1.926,4.235a3.376,3.376,0,0,1-4.408-2.259,15.829,15.829,0,0,0-11.095-11.056A2.94,2.94,0,0,1,1136.115,6944.067Z" fill="#fff"/>
    <path id="Path_216" data-name="Path 216" d="M1165.917,7039.97a25.234,25.234,0,0,1-3.073-.983q-10.529-4.87-21.01-9.841a2.438,2.438,0,0,0-2.334.011c-6.878,3.254-13.819,6.377-20.648,9.73a6.679,6.679,0,0,1-9.089-2.864c-3.888-6.838-7.933-13.586-11.872-20.394a2.559,2.559,0,0,0-1.939-1.334q-12.04-2.372-24.063-4.829c-3.889-.8-5.7-3.582-5.193-7.548.8-6.3,1.495-12.614,2.234-18.922.17-1.453.4-2.9.468-4.36a2.622,2.622,0,0,0-.57-1.66q-7.77-9.14-15.614-18.218a5.9,5.9,0,0,1-.011-8.275q7.824-9.01,15.62-18.046a2.614,2.614,0,0,0,.572-1.768c-.49-4.78-1.066-9.552-1.616-14.326-.378-3.279-.855-6.55-1.108-9.839-.263-3.423,1.607-5.755,4.981-6.449q12.205-2.513,24.424-4.952a2.431,2.431,0,0,0,1.808-1.321c3.966-6.89,7.975-13.754,11.94-20.645,1.085-1.887,2.558-3.321,4.746-3.505a8.324,8.324,0,0,1,3.967.645c7.046,3.186,14.036,6.5,21.027,9.8a2.32,2.32,0,0,0,2.224-.006c6.991-3.309,14.005-6.567,21.006-9.853a7.3,7.3,0,0,1,4.988-.615,5.012,5.012,0,0,1,3.285,2.5q6.3,10.86,12.61,21.709a2.427,2.427,0,0,0,1.823,1.293c8.149,1.617,16.278,3.329,24.424,4.958a6.337,6.337,0,0,1,4.781,6.9c-.846,5.319-1.291,10.7-1.908,16.057-.283,2.448-.528,4.9-.9,7.34a2.42,2.42,0,0,0,.624,2.156c5.2,5.963,10.378,11.952,15.582,17.914a5.962,5.962,0,0,1,.039,8.279c-5.018,5.846-9.957,11.764-15.107,17.492-1.378,1.533-1.114,3-.929,4.614.809,7.057,1.681,14.106,2.46,21.167.5,4.5-1.269,6.7-5.775,7.593q-11.795,2.342-23.562,4.806a2.427,2.427,0,0,0-1.407,1.045q-6.414,10.789-12.732,21.636A5.835,5.835,0,0,1,1165.917,7039.97ZM1221,6954.639c-.359-.442-.662-.833-.984-1.208q-8.074-9.376-16.136-18.764a2.946,2.946,0,0,1-.687-1.633,17.837,17.837,0,0,1,.242-2.742q1.09-10.54,2.177-21.081c.182-1.795.143-1.788-1.614-2.2-7.514-1.781-15.022-3.592-22.545-5.332a4.11,4.11,0,0,1-2.63-1.869c-4.485-6.569-9.03-13.1-13.511-19.667a1.306,1.306,0,0,0-1.929-.559c-7.12,3.013-14.27,5.956-21.392,8.964a3.09,3.09,0,0,1-2.611.026c-7.218-3-14.463-5.928-21.676-8.935a1.494,1.494,0,0,0-2.22.655q-6.6,10.014-13.337,19.936a2.979,2.979,0,0,1-1.483,1.185c-2.454.675-4.945,1.214-7.421,1.807-5.561,1.332-11.12,2.674-16.685,3.992-.589.139-1.028.272-.947,1.026q.564,5.235,1.087,10.476c.474,4.7.967,9.4,1.368,14.1a2.846,2.846,0,0,1-.64,1.876q-8.022,9.42-16.155,18.746c-.837.956-.723,1.5.05,2.365,5.319,5.972,10.579,12,15.894,17.974a3.064,3.064,0,0,1,.891,2.581c-.384,3.407-.689,6.822-1.025,10.233-.448,4.534-.844,9.073-1.38,13.6-.141,1.194.059,1.681,1.293,1.966q11.713,2.7,23.387,5.576a3.312,3.312,0,0,1,1.748,1.209q7.117,10.039,14.121,20.161a1.288,1.288,0,0,0,1.915.538q10.665-4.556,21.39-8.972a3.226,3.226,0,0,1,2.214-.026q10.939,4.38,21.817,8.916c1.075.448,1.618.364,2.3-.667q6.552-9.969,13.265-19.832a3.314,3.314,0,0,1,1.678-1.313c5.687-1.514,11.4-2.932,17.1-4.39,2.577-.659,5.147-1.345,7.776-2.033-.055-.863-.08-1.612-.154-2.357-.3-3-.607-5.988-.913-8.982-.472-4.616-.972-9.229-1.383-13.85a2.812,2.812,0,0,1,.549-1.894c3.1-3.627,6.279-7.19,9.433-10.773C1215.805,6960.545,1218.373,6957.624,1221,6954.639Z" fill="#fff"/>
  </g>
</svg>
