<svg xmlns="http://www.w3.org/2000/svg" width="176.263" height="122.333" viewBox="0 0 176.263 122.333">
  <g id="Group_160" data-name="Group 160" transform="translate(-1052.526 -5813.022)">
    <g id="Group_159" data-name="Group 159">
      <g id="Group_157" data-name="Group 157">
        <path id="Path_217" data-name="Path 217" d="M1219.1,5894.6H1103.848a9.7,9.7,0,0,1-9.689-9.69v-62.2a9.7,9.7,0,0,1,9.689-9.688H1219.1a9.7,9.7,0,0,1,9.689,9.688v62.2A9.7,9.7,0,0,1,1219.1,5894.6Zm-115.252-73.666a1.774,1.774,0,0,0-1.773,1.772v62.2a1.775,1.775,0,0,0,1.773,1.774H1219.1a1.776,1.776,0,0,0,1.773-1.774v-62.2a1.775,1.775,0,0,0-1.773-1.772Z" fill="#fff"/>
      </g>
      <g id="Group_158" data-name="Group 158">
        <path id="Path_218" data-name="Path 218" d="M1161.515,5868.2a3.948,3.948,0,0,1-2.358-.779l-61.611-45.678,4.715-6.36,59.252,43.93,59.172-43.929,4.718,6.358-61.529,45.678A3.951,3.951,0,0,1,1161.515,5868.2Z" fill="#fff"/>
      </g>
    </g>
    <path id="Path_219" data-name="Path 219" d="M1065.465,5853.384c2.569,0,5.139-.009,7.708,0,2.423.01,3.994,1.124,4.524,3.46,1.134,5,2.222,10.009,3.2,15.039a5.559,5.559,0,0,1-1.678,5.3c-3.427,3.358-6.757,6.813-10.139,10.217-.564.567-.821,1.027-.307,1.857,7.76,12.538,17.618,22.937,30.551,30.252a1.5,1.5,0,0,0,2.205-.285c3.223-3.422,6.522-6.77,9.773-10.165a6.078,6.078,0,0,1,6.18-1.9c4.192.968,8.409,1.831,12.614,2.747,2.973.648,4.4,2.4,4.406,5.417q.009,7.271,0,14.543c-.008,3.464-2.046,5.52-5.533,5.484a62.939,62.939,0,0,1-30.55-8.6c-19.337-10.874-33.5-26.4-41.867-47.03a54.18,54.18,0,0,1-4.027-21.111c.036-3.334,1.9-5.21,5.229-5.229C1060.327,5853.372,1062.9,5853.384,1065.465,5853.384Zm-.783,28.712c3.2-3.182,6.163-6.1,9.07-9.074a1.731,1.731,0,0,0,.155-1.314c-.69-3.51-1.445-7.007-2.133-10.518a1.232,1.232,0,0,0-1.465-1.167c-3.246.048-6.5.074-9.741-.009-1.256-.032-1.549.512-1.359,1.553.624,3.419,1.076,6.886,1.969,10.234C1062.094,5875.231,1063.452,5878.542,1064.682,5882.1Zm42.2,41.354a56.552,56.552,0,0,0,20.836,5.125c0-4.018.02-7.834-.042-11.648-.005-.274-.58-.694-.951-.78a59.027,59.027,0,0,1-6.785-1.494c-3.026-1.091-5.014-.174-6.909,2.216C1111.214,5919.162,1109.039,5921.17,1106.883,5923.45Z" fill="#fff"/>
  </g>
</svg>
