<svg xmlns="http://www.w3.org/2000/svg" width="148.606" height="142.847" viewBox="0 0 148.606 142.847">
  <g id="Group_108" data-name="Group 108" transform="translate(-1066.354 -7963.765)">
    <g id="Group_107" data-name="Group 107">
      <g id="Group_103" data-name="Group 103">
        <path id="Path_156" data-name="Path 156" d="M1096.121,8012.144l.7.694q6.783,6.783,13.565,13.567c1.227,1.229,1.216,2.583-.016,3.6a2.047,2.047,0,0,1-2.807-.056c-.316-.286-.609-.6-.91-.9q-8.712-8.71-17.422-17.422c-1.338-1.338-1.337-2.339,0-3.674q9.045-9.045,18.091-18.09a2.108,2.108,0,0,1,3.424.089,2.038,2.038,0,0,1-.094,2.952c-.953.983-1.932,1.941-2.9,2.909q-5.5,5.5-10.994,11a7.424,7.424,0,0,0-.528.664l.122.142c.458-.027.915-.077,1.373-.078q19.387-.02,38.776-.031,5.721-.007,11.444-.023a2.827,2.827,0,0,1,2.164.728,2.212,2.212,0,0,1-.935,3.717,4.31,4.31,0,0,1-1.195.135q-7.406.012-14.811.006-17.908.009-35.815.023C1097.012,8012.1,1096.678,8012.122,1096.121,8012.144Z" fill="#fff"/>
      </g>
      <g id="Group_104" data-name="Group 104">
        <path id="Path_157" data-name="Path 157" d="M1182.261,8035.191l-.693-.693q-6.807-6.807-13.613-13.616a2.207,2.207,0,0,1,.108-3.594,2.041,2.041,0,0,1,2.706.045c.187.16.356.342.531.516q8.925,8.925,17.851,17.851c1.34,1.34,1.342,2.34.009,3.673q-9.045,9.046-18.091,18.09a2.257,2.257,0,1,1-3.2-3.18q6.875-6.884,13.754-13.763a7.528,7.528,0,0,0,.534-.667l-.124-.146c-.434.028-.868.081-1.3.082q-16.089.019-32.179.031-9.021.01-18.042.024a2.9,2.9,0,0,1-2.23-.725,2.211,2.211,0,0,1,.926-3.719,4.239,4.239,0,0,1,1.195-.136q7.338-.014,14.676-.007,17.976-.009,35.95-.022C1181.364,8035.234,1181.7,8035.212,1182.261,8035.191Z" fill="#fff"/>
      </g>
      <g id="Group_106" data-name="Group 106">
        <g id="Group_105" data-name="Group 105">
          <path id="Path_158" data-name="Path 158" d="M1093.512,8106.612a11.1,11.1,0,0,1-10.542-14.42l3.219-10.191a22.363,22.363,0,0,1-19.835-22.192v-73.715a22.355,22.355,0,0,1,22.332-22.329h103.946a22.354,22.354,0,0,1,22.328,22.329v73.715a22.354,22.354,0,0,1-22.328,22.332h-57.949l-35.162,22.68A11.068,11.068,0,0,1,1093.512,8106.612Zm-4.826-132.018a11.514,11.514,0,0,0-11.5,11.5v73.715a11.515,11.515,0,0,0,11.5,11.5h12.231l-7.622,24.139,38.2-24.139h61.139a11.514,11.514,0,0,0,11.5-11.5v-73.715a11.513,11.513,0,0,0-11.5-11.5Z" fill="#fff"/>
        </g>
      </g>
    </g>
  </g>
</svg>
