<svg xmlns="http://www.w3.org/2000/svg" width="111.043" height="170.563" viewBox="0 0 111.043 170.563">
  <g id="Group_315" data-name="Group 315" transform="translate(-1085.136 -2547.407)">
    <g id="Group_308" data-name="Group 308" fill="#fff">
      <path id="Path_429" data-name="Path 429" d="M1185.925,2717.97h-90.536a10.264,10.264,0,0,1-10.253-10.253v-134.8a10.265,10.265,0,0,1,10.253-10.254h90.536a10.266,10.266,0,0,1,10.254,10.254v134.8A10.265,10.265,0,0,1,1185.925,2717.97Zm-90.536-148.2a3.156,3.156,0,0,0-3.152,3.153v134.8a3.155,3.155,0,0,0,3.152,3.152h90.536a3.156,3.156,0,0,0,3.153-3.152v-134.8a3.157,3.157,0,0,0-3.153-3.153Z" />
    </g>
    <g id="Group_309" data-name="Group 309" fill="#fff">
      <path id="Path_430" data-name="Path 430" d="M1180.872,2566.216h-7.1v-9.628a2.082,2.082,0,0,0-2.08-2.08h-62.068a2.083,2.083,0,0,0-2.08,2.08v9.628h-7.1v-9.628a9.192,9.192,0,0,1,9.181-9.181h62.068a9.192,9.192,0,0,1,9.181,9.181Z" />
    </g>
    <g id="Group_310" data-name="Group 310" fill="#fff">
      <rect id="Rectangle_45" data-name="Rectangle 45" width="36.591" height="7.101" transform="translate(1103.993 2594.242)"/>
    </g>
    <g id="Group_311" data-name="Group 311" fill="#fff">
      <rect id="Rectangle_46" data-name="Rectangle 46" width="36.591" height="7.101" transform="translate(1103.993 2614.335)"/>
    </g>
    <g id="Group_312" data-name="Group 312" fill="#fff">
      <rect id="Rectangle_47" data-name="Rectangle 47" width="73.329" height="7.101" transform="translate(1103.993 2642.889)"/>
    </g>
    <g id="Group_313" data-name="Group 313" fill="#fff">
      <rect id="Rectangle_48" data-name="Rectangle 48" width="73.329" height="7.101" transform="translate(1103.993 2660.565)"/>
    </g>
    <g id="Group_314" data-name="Group 314" fill="#fff">
      <rect id="Rectangle_49" data-name="Rectangle 49" width="73.329" height="7.101" transform="translate(1103.993 2675.975)"/>
    </g>
  </g>
</svg>
