<svg xmlns="http://www.w3.org/2000/svg" width="152.004" height="152.254" viewBox="0 0 152.004 152.254">
  <g id="Group_31" data-name="Group 31" transform="translate(-1064.655 -10120.062)">
    <g id="Group_30" data-name="Group 30">
      <g id="Group_28" data-name="Group 28">
        <path id="Path_49" data-name="Path 49" d="M1132.07,10120.636c17.776-2.054,34.382,1.356,49.523,11,15.317,9.755,25.65,23.441,31.309,40.686a74.925,74.925,0,0,1,3.636,19.5c.982,18.719-3.966,35.727-15.328,50.708a71.922,71.922,0,0,1-38.86,26.548c-24.324,6.753-46.985,3.065-67.393-12.037-13.185-9.758-22.016-22.757-26.9-38.427a74.389,74.389,0,0,1-3.383-20.873,75.189,75.189,0,0,1,15.4-47.878,73.127,73.127,0,0,1,33.011-24.727A76.054,76.054,0,0,1,1132.07,10120.636Zm-56.112,81.881c3.033,35.662,36.2,61.976,71.038,58.567,36.932-3.613,62.955-37.665,58.241-73.559-4.514-34.381-36.885-60.1-71.5-56.254C1097.961,10135.247,1072.03,10168.442,1075.958,10202.517Z" fill="#fff"/>
      </g>
      <g id="Group_29" data-name="Group 29">
        <path id="Path_50" data-name="Path 50" d="M1126.466,10217.055c2.373-2.282,4.63-4.347,6.765-6.529q12.125-12.4,24.187-24.851,10.308-10.586,20.639-21.15a5.014,5.014,0,0,1,6.567-.868,5.083,5.083,0,0,1,.651,7.862q-6.45,6.664-12.927,13.3-20.836,21.379-41.676,42.754c-2.633,2.7-5.632,2.687-8.23-.107q-13.191-14.187-26.356-28.4c-2.143-2.312-2.13-5.422-.011-7.4,2.151-2.009,5.2-1.816,7.359.506q11.034,11.87,22.047,23.758C1125.821,10216.3,1126.14,10216.682,1126.466,10217.055Z" fill="#fff"/>
      </g>
    </g>
  </g>
</svg>
