<svg xmlns="http://www.w3.org/2000/svg" viewBox="0 0 459 72.56"><defs><style>.cls-1{fill:#325889;}.cls-2{fill:#192c4c;}</style></defs><g id="Layer_2" data-name="Layer 2"><g id="Items"><path class="cls-1" d="M444.25,50.29V39.47c0-.34.18-.51.55-.51h7.82a.45.45,0,0,1,.51.51V50.29a.85.85,0,0,0,1,1H458a.85.85,0,0,0,1-1V22.5a.85.85,0,0,0-1-1H454.1a.85.85,0,0,0-1,1V33.37a.45.45,0,0,1-.51.51H444.8c-.37,0-.55-.17-.55-.51V22.5a.86.86,0,0,0-1-1h-3.94a.86.86,0,0,0-1,1V50.29a.86.86,0,0,0,1,1h3.94a.86.86,0,0,0,1-1m-12.47-1a7.44,7.44,0,0,0,2-5.57V41.55a.89.89,0,0,0-1-1h-3.89c-.64,0-1,.34-1,1v1.9a2.91,2.91,0,0,1-.62,2.1,2.91,2.91,0,0,1-2.11.63h-3.14a2.82,2.82,0,0,1-2.06-.63,2.87,2.87,0,0,1-.62-2.1V29.34a2.88,2.88,0,0,1,.62-2.1,2.82,2.82,0,0,1,2.06-.63h3.14a2.91,2.91,0,0,1,2.11.63,2.93,2.93,0,0,1,.62,2.1v1.9c0,.68.33,1,1,1h3.89a.89.89,0,0,0,1-1V29.07a7.45,7.45,0,0,0-2-5.58,7.69,7.69,0,0,0-5.62-2h-5a7.73,7.73,0,0,0-5.64,1.94,7.45,7.45,0,0,0-2,5.6V43.73a7.44,7.44,0,0,0,2,5.59,7.73,7.73,0,0,0,5.64,1.94h5a7.69,7.69,0,0,0,5.62-2M398.65,27.12,402,40.49h-6.85l3.33-13.37Zm-6.22,23.94a1.43,1.43,0,0,0,.3-.77L394,45.21h9l1.3,5.08a1.64,1.64,0,0,0,.27.77.93.93,0,0,0,.7.2h4.44c.55,0,.74-.32.55-1L403,22.5a1.23,1.23,0,0,0-1.38-1h-6.15a1.32,1.32,0,0,0-1.39,1l-7.31,27.79c-.18.65,0,1,.56,1h4.44a.93.93,0,0,0,.67-.2m-10.85-1.74a7.44,7.44,0,0,0,2-5.59V29.07a7.45,7.45,0,0,0-2-5.6,7.7,7.7,0,0,0-5.64-1.94h-5.18a7.7,7.7,0,0,0-5.64,1.94,7.45,7.45,0,0,0-2,5.6V43.73a7.44,7.44,0,0,0,2,5.59,7.7,7.7,0,0,0,5.64,1.94h5.18a7.7,7.7,0,0,0,5.64-1.94m-12-3.77a3,3,0,0,1-.6-2.1V29.34a3,3,0,0,1,.6-2.1,2.82,2.82,0,0,1,2.09-.63H375a2.87,2.87,0,0,1,2.1.63,2.88,2.88,0,0,1,.63,2.1V43.45A2.31,2.31,0,0,1,375,46.18h-3.28a2.82,2.82,0,0,1-2.09-.63m-25-10.47v-8a.45.45,0,0,1,.51-.51h4.53a3.14,3.14,0,0,1,2.18.65,2.74,2.74,0,0,1,.69,2.08V33a2.57,2.57,0,0,1-.69,2,3.19,3.19,0,0,1-2.18.63h-4.53a.45.45,0,0,1-.51-.51m0,15.21V40.81c0-.34.19-.51.56-.51h3.09l4.63,10a1.35,1.35,0,0,0,.6.79,3,3,0,0,0,1.2.18h3.75q1.2,0,.78-1.11L354.3,39.84v-.18c2.74-1.14,4.11-3.46,4.11-6.94V29.11a7.47,7.47,0,0,0-2-5.59,7.73,7.73,0,0,0-5.65-2h-11a.85.85,0,0,0-1,1V50.29a.85.85,0,0,0,1,1h3.93a.85.85,0,0,0,1-1M320.58,35.4V27.12a.45.45,0,0,1,.51-.51H326a2.8,2.8,0,0,1,2.08.63,3,3,0,0,1,.6,2.1v3.89a2.93,2.93,0,0,1-.6,2.06,2.84,2.84,0,0,1-2.08.62h-4.9a.45.45,0,0,1-.51-.51m0,14.89V41.55c0-.34.19-.51.56-.51H327a7.63,7.63,0,0,0,5.6-2,7.52,7.52,0,0,0,2-5.58V29.07a7.52,7.52,0,0,0-2-5.58,7.63,7.63,0,0,0-5.6-2H315.68a.85.85,0,0,0-1,1V50.29a.85.85,0,0,0,1,1h3.93a.85.85,0,0,0,1-1M296.53,35.4V27.12a.45.45,0,0,1,.51-.51h4.9a2.84,2.84,0,0,1,2.09.63,3,3,0,0,1,.6,2.1v3.89a2.93,2.93,0,0,1-.6,2.06,2.88,2.88,0,0,1-2.09.62H297a.45.45,0,0,1-.51-.51m0,14.89V41.55c0-.34.19-.51.56-.51h5.82a7.63,7.63,0,0,0,5.6-2,7.48,7.48,0,0,0,2-5.58V29.07a7.48,7.48,0,0,0-2-5.58,7.63,7.63,0,0,0-5.6-2H291.63a.85.85,0,0,0-1,1V50.29a.85.85,0,0,0,1,1h3.93a.85.85,0,0,0,1-1M275.35,27.12l3.33,13.37h-6.84l3.33-13.37Zm-6.22,23.94a1.43,1.43,0,0,0,.3-.77l1.3-5.08h9L281,50.29a1.53,1.53,0,0,0,.28.77.89.89,0,0,0,.69.2h4.44c.56,0,.74-.32.56-1L279.7,22.5a1.25,1.25,0,0,0-1.39-1h-6.15a1.33,1.33,0,0,0-1.39,1l-7.3,27.79c-.19.65,0,1,.55,1h4.44a.91.91,0,0,0,.67-.2"/><path class="cls-2" d="M234.84,50.29V33.14H235l9.24,17.2a1.55,1.55,0,0,0,1.48.92h3.38a.85.85,0,0,0,1-1V22.5a.85.85,0,0,0-1-1h-3.84a.85.85,0,0,0-1,1V39.7h-.18l-9.35-17.53a1.29,1.29,0,0,0-1.29-.64H230a.85.85,0,0,0-1,1V50.29a.85.85,0,0,0,1,1h3.84a.85.85,0,0,0,1-1M213.75,27.12l3.33,13.37h-6.84l3.33-13.37Zm-6.22,23.94a1.43,1.43,0,0,0,.3-.77l1.3-5.08h9l1.3,5.08a1.53,1.53,0,0,0,.28.77.89.89,0,0,0,.69.2h4.44c.56,0,.74-.32.56-1L218.1,22.5a1.25,1.25,0,0,0-1.39-1h-6.15a1.33,1.33,0,0,0-1.39,1l-7.3,27.79c-.19.65,0,1,.55,1h4.44a.91.91,0,0,0,.67-.2m-13.62-.77V27.12c0-.34.19-.51.56-.51h5.27a.85.85,0,0,0,1-1V22.5a.85.85,0,0,0-1-1H182.26a.85.85,0,0,0-1,1v3.14a.85.85,0,0,0,1,1h5.27a.45.45,0,0,1,.51.51V50.29c0,.65.34,1,1,1h3.88a.85.85,0,0,0,1-1M164.78,35.08v-8a.44.44,0,0,1,.5-.51h4.54a3.11,3.11,0,0,1,2.17.65,2.74,2.74,0,0,1,.69,2.08V33a2.57,2.57,0,0,1-.69,2,3.16,3.16,0,0,1-2.17.63h-4.54a.44.44,0,0,1-.5-.51m0,15.21V40.81c0-.34.18-.51.55-.51h3.1l4.62,10a1.43,1.43,0,0,0,.6.79,3,3,0,0,0,1.21.18h3.74c.8,0,1.07-.37.79-1.11l-4.95-10.31v-.18c2.74-1.14,4.12-3.46,4.12-6.94V29.11a7.44,7.44,0,0,0-2-5.59,7.7,7.7,0,0,0-5.64-2h-11a.86.86,0,0,0-1,1V50.29a.86.86,0,0,0,1,1h3.93a.86.86,0,0,0,1-1M143.59,27.12l3.33,13.37h-6.84l3.33-13.37Zm-6.22,23.94a1.43,1.43,0,0,0,.3-.77l1.3-5.08h9l1.29,5.08a1.63,1.63,0,0,0,.28.77.89.89,0,0,0,.69.2h4.44c.56,0,.74-.32.56-1L147.94,22.5a1.24,1.24,0,0,0-1.39-1H140.4a1.31,1.31,0,0,0-1.38,1l-7.31,27.79c-.19.65,0,1,.55,1h4.44a.91.91,0,0,0,.67-.2M115.43,35.4V27.12a.45.45,0,0,1,.51-.51h4.9a2.8,2.8,0,0,1,2.08.63,3,3,0,0,1,.6,2.1v3.89a2.93,2.93,0,0,1-.6,2.06,2.84,2.84,0,0,1-2.08.62h-4.9a.45.45,0,0,1-.51-.51m0,14.89V41.55c0-.34.18-.51.55-.51h5.83a7.63,7.63,0,0,0,5.6-2,7.52,7.52,0,0,0,2-5.58V29.07a7.52,7.52,0,0,0-2-5.58,7.63,7.63,0,0,0-5.6-2H110.53a.85.85,0,0,0-1,1V50.29a.85.85,0,0,0,1,1h3.93a.86.86,0,0,0,1-1"/><path class="cls-2" d="M86.39,49.28a7.72,7.72,0,0,0,5.64,2h5a7.76,7.76,0,0,0,5.64-2,7.48,7.48,0,0,0,2-5.6V42.11a8.7,8.7,0,0,0-1.09-4.56A5.92,5.92,0,0,0,101,35.08a23.63,23.63,0,0,0-7-1.58q-3.8-.31-3.79-2.49v-.88a4.21,4.21,0,0,1,.67-2.8,3.49,3.49,0,0,1,2.57-.72h1.8a3.77,3.77,0,0,1,2.54.65,3.29,3.29,0,0,1,.7,2.45V30a.85.85,0,0,0,1,1h3.93a.85.85,0,0,0,1-1v-.88a7.47,7.47,0,0,0-2-5.59,7.8,7.8,0,0,0-5.69-2H92a7.72,7.72,0,0,0-5.64,2,7.44,7.44,0,0,0-2,5.59v1.62a9.1,9.1,0,0,0,1.08,4.69,5.53,5.53,0,0,0,2.71,2.46,23,23,0,0,0,3.49,1,29.25,29.25,0,0,0,3.49.54,5.71,5.71,0,0,1,2.71.85,2.32,2.32,0,0,1,1.08,2.06v.55a3.61,3.61,0,0,1-.71,2.59,3.57,3.57,0,0,1-2.52.7H93.46a3.77,3.77,0,0,1-2.54-.65,3.25,3.25,0,0,1-.7-2.41v-.37a.86.86,0,0,0-1-1H85.32a.86.86,0,0,0-1,1v.93a7.48,7.48,0,0,0,2,5.6"/><path class="cls-1" d="M69.06,13.15A.58.58,0,0,0,69,13l0-.1a1.21,1.21,0,0,0-.27-.43A39.41,39.41,0,0,0,39.79,0,39.8,39.8,0,0,0,10.71,67a1.37,1.37,0,0,0,.2.16.53.53,0,0,0,.17.1l.07,0a1.27,1.27,0,0,0,.18.06l.07,0a1.24,1.24,0,0,0,.47,0l.14,0,.1,0,.13-.07.08,0,.08-.06.24-.2,13.1-12.17H31v5.17S31,60,31,60l0,.13,0,.1a1.12,1.12,0,0,0,.05.13l.07.12.05.08s.06.08.07.08a.5.5,0,0,0,.1.11l.25.18,20.8,11.44a1,1,0,0,0,.21.09l.07,0a1.09,1.09,0,0,0,.26,0h0l.29,0,.08,0a1,1,0,0,0,.21-.08l.08,0a1.22,1.22,0,0,0,.25-.2,1.4,1.4,0,0,0,.16-.2l.06-.11.06-.14,0-.12a.5.5,0,0,0,0-.12.53.53,0,0,0,0-.12V54.83L59,57.91l0,0,.24.12.22.06a1.31,1.31,0,0,0,.52,0l.08,0A.84.84,0,0,0,60.3,58l.08,0,.18-.12.06-.05a1.3,1.3,0,0,0,.19-.22h0l0-.08a.61.61,0,0,0,.07-.14.41.41,0,0,0,0-.15l0-.09s0-.1,0-.16l0-16.19a21.17,21.17,0,0,0-5.42-14.17l13-12.3a1.27,1.27,0,0,0,.39-.82Zm-.34.13Zm-17,39.88V69.1l-18.19-10V43h2.63l.11.07ZM51.7,43V50.1L40.83,43ZM31,43v9.15H25A18.48,18.48,0,0,1,21.23,43Zm8.84-21a18.56,18.56,0,0,1,12.86,5.14s.52.5.55.54a18.57,18.57,0,0,1,5.3,12.72H21.09A18.73,18.73,0,0,1,39.79,22.05ZM18.54,41.39a8.62,8.62,0,0,0,.06,1.14,21,21,0,0,0,4.2,11l.19.25-.11.1L11.73,64.25A37.23,37.23,0,0,1,66,13.32L53.82,24.78a21.26,21.26,0,0,0-35.3,16C18.52,41,18.53,41.18,18.54,41.39ZM58.46,43V54.49l-4.19-2.72V43Zm2.16,14.11Z"/></g></g></svg>