<svg xmlns="http://www.w3.org/2000/svg" viewBox="0 0 410.6 90.2"><defs><style>.cls-1{fill:#325889;}.cls-2{fill:#ef7b15;}.cls-3{fill:#192c4c;}</style></defs><g id="Layer_2" data-name="Layer 2"><g id="Layer_1-2" data-name="Layer 1"><path class="cls-1" d="M90.33,56.63H87.54a1.57,1.57,0,0,1-1.49-.81l-2.49-4.28h-1a6.41,6.41,0,0,1-4.67-1.61,6.16,6.16,0,0,1-1.65-4.63V33.17a6.16,6.16,0,0,1,1.65-4.63,6.41,6.41,0,0,1,4.67-1.61h4.28a6.41,6.41,0,0,1,4.67,1.61,6.16,6.16,0,0,1,1.65,4.63V45.3a6.54,6.54,0,0,1-1.21,4.09,5.36,5.36,0,0,1-3.42,2L91,55.63a.77.77,0,0,1,0,.73A.72.72,0,0,1,90.33,56.63Zm-7-9.3h2.72a1.91,1.91,0,0,0,2.26-2.26V33.4a2.41,2.41,0,0,0-.52-1.74,2.4,2.4,0,0,0-1.74-.52H83.33a2.3,2.3,0,0,0-1.72.52,2.46,2.46,0,0,0-.5,1.74V45.07a2.46,2.46,0,0,0,.5,1.74A2.3,2.3,0,0,0,83.33,47.33Z"/><path class="cls-1" d="M110.65,26.93h3.22c.56,0,.84.26.84.77V45.3A6.15,6.15,0,0,1,113,49.91a6.35,6.35,0,0,1-4.65,1.63h-4.21a6.39,6.39,0,0,1-4.66-1.61,6.16,6.16,0,0,1-1.65-4.63V27.74a.71.71,0,0,1,.8-.81h3.26a.71.71,0,0,1,.8.81V45.07a2.37,2.37,0,0,0,.52,1.74,2.31,2.31,0,0,0,1.7.52h2.64a1.91,1.91,0,0,0,2.26-2.26V27.74A.71.71,0,0,1,110.65,26.93Z"/><path class="cls-1" d="M122.05,51.54h-3.67c-.46,0-.61-.27-.46-.81l6-23a1.1,1.1,0,0,1,1.15-.81h5.08a1,1,0,0,1,1.15.81l6.05,23c.15.54,0,.81-.46.81h-3.67a.73.73,0,0,1-.58-.18,1.27,1.27,0,0,1-.23-.63l-1.07-4.21h-7.46l-1.07,4.21a1.17,1.17,0,0,1-.25.63A.75.75,0,0,1,122.05,51.54Zm5.55-20-2.75,11.06h5.66l-2.75-11.06Z"/><path class="cls-1" d="M154.2,51.54H141.61a.72.72,0,0,1-.81-.81v-23a.72.72,0,0,1,.81-.81h3.25a.71.71,0,0,1,.8.81V46.87c0,.28.16.42.46.42h8.08c.51,0,.76.28.76.84v2.6C155,51.27,154.71,51.54,154.2,51.54Z"/><path class="cls-1" d="M163,27.74v23a.71.71,0,0,1-.8.81H159a.71.71,0,0,1-.8-.81v-23a.71.71,0,0,1,.8-.81h3.25A.71.71,0,0,1,163,27.74Z"/><path class="cls-1" d="M172.26,51.54H169a.71.71,0,0,1-.8-.81v-23a.71.71,0,0,1,.8-.81h12.21c.51,0,.77.27.77.81v2.6a.7.7,0,0,1-.77.8h-7.69c-.31,0-.46.14-.46.42v5.93a.4.4,0,0,0,.46.46h6.54a.72.72,0,0,1,.81.81v2.56q0,.84-.81.84h-6.54c-.31,0-.46.14-.46.42v8.15A.71.71,0,0,1,172.26,51.54Z"/><path class="cls-1" d="M190.47,27.74v23a.71.71,0,0,1-.8.81h-3.26a.71.71,0,0,1-.8-.81v-23a.71.71,0,0,1,.8-.81h3.26A.71.71,0,0,1,190.47,27.74Z"/><path class="cls-1" d="M209,51.54H196.44a.71.71,0,0,1-.8-.81v-23a.71.71,0,0,1,.8-.81H209c.51,0,.77.27.77.81v2.6a.7.7,0,0,1-.77.8h-8q-.45,0-.45.42v5q0,.42.45.42h6.55a.71.71,0,0,1,.8.8v2.6a.71.71,0,0,1-.8.81H201q-.45,0-.45.42v5.32q0,.42.45.42h8a.7.7,0,0,1,.77.8v2.6C209.72,51.27,209.46,51.54,209,51.54Z"/><path class="cls-1" d="M214,50.73v-23a.72.72,0,0,1,.81-.81h9.45a6.35,6.35,0,0,1,4.65,1.63,6.14,6.14,0,0,1,1.66,4.61V45.3a6.14,6.14,0,0,1-1.66,4.61,6.35,6.35,0,0,1-4.65,1.63h-9.45A.72.72,0,0,1,214,50.73Zm5.28-3.4h4.18a1.9,1.9,0,0,0,2.25-2.26V33.4a2.41,2.41,0,0,0-.51-1.74,2.4,2.4,0,0,0-1.74-.52h-4.18a.37.37,0,0,0-.42.42V46.91A.37.37,0,0,0,219.24,47.33Z"/><path class="cls-1" d="M41.27,56.55a1.26,1.26,0,0,1-.33-2.47,20.8,20.8,0,1,0-16-2,1.26,1.26,0,0,1-1.26,2.18,23.3,23.3,0,1,1,17.9,2.26A1.27,1.27,0,0,1,41.27,56.55Z"/><path class="cls-1" d="M35.64,62.43a6.19,6.19,0,1,1,6.19-6.19A6.19,6.19,0,0,1,35.64,62.43Zm0-9.86a3.68,3.68,0,1,0,3.68,3.67A3.68,3.68,0,0,0,35.64,52.57Z"/><path class="cls-1" d="M26,30.29a21.71,21.71,0,0,1-10.91-2.94,1.26,1.26,0,0,1,1.28-2.18A19.11,19.11,0,0,0,42.06,19a1.26,1.26,0,0,1,2.11,1.36A21.55,21.55,0,0,1,26,30.29Z"/><path class="cls-1" d="M35.3,47.73a12.48,12.48,0,0,1-9.09-3.88A1.26,1.26,0,0,1,28,42.11a10,10,0,0,0,14.53,0,1.26,1.26,0,0,1,1.83,1.74A12.47,12.47,0,0,1,35.3,47.73Z"/><path class="cls-1" d="M56.48,29.86l-.26,0A21.67,21.67,0,0,1,39.61,13.51,1.26,1.26,0,0,1,42.06,13,19.16,19.16,0,0,0,56.74,27.37a1.26,1.26,0,0,1-.26,2.49Z"/><path class="cls-2" d="M35,0a34.9,34.9,0,1,0-.07,69.79,34.61,34.61,0,0,0,17.34-4.6l.21-.14,10.83,3.11a3.91,3.91,0,0,0,3.89-1,4,4,0,0,0,1-3.89L65.05,52.59l.14-.21A34.93,34.93,0,0,0,35,0Zm0,67.1A32.17,32.17,0,1,1,67.1,35a31.82,31.82,0,0,1-4.74,16.77l-.29.5,3.47,11.82a1.17,1.17,0,0,1-1.48,1.48l-12-3.39-.49.28A31.94,31.94,0,0,1,35,67.1Z"/><path class="cls-2" d="M242.7,45.15v-.77a.71.71,0,0,1,.8-.8h3.25a.71.71,0,0,1,.81.8v.31a2.7,2.7,0,0,0,.57,2,3.13,3.13,0,0,0,2.11.54H252a2.92,2.92,0,0,0,2.08-.58,2.93,2.93,0,0,0,.59-2.14V44a1.91,1.91,0,0,0-.9-1.7,4.71,4.71,0,0,0-2.23-.71,24,24,0,0,1-2.89-.44,19.23,19.23,0,0,1-2.89-.84,4.57,4.57,0,0,1-2.24-2,7.5,7.5,0,0,1-.9-3.88V33.1a6.17,6.17,0,0,1,1.68-4.63A6.4,6.4,0,0,1,249,26.82h3.83a6.47,6.47,0,0,1,4.71,1.65,6.17,6.17,0,0,1,1.68,4.63v.72a.71.71,0,0,1-.8.81h-3.26a.71.71,0,0,1-.8-.81v-.23a2.74,2.74,0,0,0-.57-2,3.13,3.13,0,0,0-2.11-.54H250.2a2.89,2.89,0,0,0-2.12.59,3.51,3.51,0,0,0-.56,2.32v.73c0,1.19,1,1.88,3.14,2.06a19.48,19.48,0,0,1,5.78,1.3,5,5,0,0,1,2.23,2,7.13,7.13,0,0,1,.9,3.77v1.3a6.19,6.19,0,0,1-1.68,4.63,6.38,6.38,0,0,1-4.67,1.65h-4.17a6.4,6.4,0,0,1-4.67-1.65A6.19,6.19,0,0,1,242.7,45.15Z"/><path class="cls-2" d="M274.15,51.43h-4.28a6.4,6.4,0,0,1-4.67-1.61,6.18,6.18,0,0,1-1.65-4.63V33.06a6.16,6.16,0,0,1,1.65-4.63,6.4,6.4,0,0,1,4.67-1.61h4.28a6.41,6.41,0,0,1,4.67,1.61,6.16,6.16,0,0,1,1.65,4.63V45.19a6.18,6.18,0,0,1-1.65,4.63A6.41,6.41,0,0,1,274.15,51.43Zm-3.52-4.21h2.72A1.91,1.91,0,0,0,275.61,45V33.29a2.41,2.41,0,0,0-.52-1.74,2.38,2.38,0,0,0-1.74-.52h-2.72a2.3,2.3,0,0,0-1.72.52,2.46,2.46,0,0,0-.5,1.74V45a2.46,2.46,0,0,0,.5,1.74A2.34,2.34,0,0,0,270.63,47.22Z"/><path class="cls-2" d="M298.45,51.43H285.86a.71.71,0,0,1-.8-.81v-23a.71.71,0,0,1,.8-.81h3.25a.72.72,0,0,1,.81.81V46.76c0,.28.15.42.46.42h8.07c.51,0,.76.28.76.84v2.6C299.21,51.16,299,51.43,298.45,51.43Z"/><path class="cls-2" d="M314.83,26.82H318c.56,0,.84.26.84.77v17.6a6.14,6.14,0,0,1-1.66,4.61,6.39,6.39,0,0,1-4.65,1.63h-4.21a6.41,6.41,0,0,1-4.67-1.61,6.17,6.17,0,0,1-1.64-4.63V27.63a.71.71,0,0,1,.8-.81h3.25a.72.72,0,0,1,.81.81V45a2.41,2.41,0,0,0,.51,1.74,2.38,2.38,0,0,0,1.71.52h2.64a2.44,2.44,0,0,0,1.74-.52A2.41,2.41,0,0,0,314,45V27.63A.72.72,0,0,1,314.83,26.82Z"/><path class="cls-2" d="M331.28,51.43h-3.21c-.57,0-.85-.27-.85-.81V31.45a.37.37,0,0,0-.42-.42h-4.36a.71.71,0,0,1-.8-.8v-2.6a.71.71,0,0,1,.8-.81H336.9a.72.72,0,0,1,.81.81v2.6a.71.71,0,0,1-.81.8h-4.36c-.3,0-.46.14-.46.42V50.62A.71.71,0,0,1,331.28,51.43Z"/><path class="cls-2" d="M345.67,27.63v23a.72.72,0,0,1-.81.81h-3.25a.71.71,0,0,1-.8-.81v-23a.71.71,0,0,1,.8-.81h3.25A.72.72,0,0,1,345.67,27.63Z"/><path class="cls-2" d="M361.05,51.43h-4.29a6.39,6.39,0,0,1-4.66-1.61,6.18,6.18,0,0,1-1.65-4.63V33.06a6.16,6.16,0,0,1,1.65-4.63,6.39,6.39,0,0,1,4.66-1.61h4.29a6.43,6.43,0,0,1,4.67,1.61,6.2,6.2,0,0,1,1.64,4.63V45.19a6.21,6.21,0,0,1-1.64,4.63A6.43,6.43,0,0,1,361.05,51.43Zm-3.52-4.21h2.72A2.44,2.44,0,0,0,362,46.7,2.41,2.41,0,0,0,362.5,45V33.29a2.41,2.41,0,0,0-.51-1.74,2.4,2.4,0,0,0-1.74-.52h-2.72a2.3,2.3,0,0,0-1.72.52,2.41,2.41,0,0,0-.5,1.74V45a2.41,2.41,0,0,0,.5,1.74A2.34,2.34,0,0,0,357.53,47.22Z"/><path class="cls-2" d="M375.93,51.43h-3.17a.72.72,0,0,1-.81-.81v-23a.72.72,0,0,1,.81-.81h2.87a1.08,1.08,0,0,1,1.07.54l7.73,14.5h.15V27.63a.71.71,0,0,1,.8-.81h3.18a.71.71,0,0,1,.8.81v23a.71.71,0,0,1-.8.81h-2.79a1.3,1.3,0,0,1-1.23-.77l-7.65-14.23h-.15V50.62A.72.72,0,0,1,375.93,51.43Z"/><path class="cls-2" d="M393.73,45.15v-.77a.71.71,0,0,1,.8-.8h3.25a.71.71,0,0,1,.81.8v.31a2.7,2.7,0,0,0,.57,2,3.08,3.08,0,0,0,2.1.54h1.8a3,3,0,0,0,2.09-.58,3,3,0,0,0,.59-2.14V44a1.91,1.91,0,0,0-.9-1.7,4.71,4.71,0,0,0-2.24-.71,24.57,24.57,0,0,1-2.89-.44,19.45,19.45,0,0,1-2.88-.84,4.53,4.53,0,0,1-2.24-2,7.5,7.5,0,0,1-.9-3.88V33.1a6.17,6.17,0,0,1,1.68-4.63A6.38,6.38,0,0,1,400,26.82h3.83a6.43,6.43,0,0,1,4.7,1.65,6.18,6.18,0,0,1,1.69,4.63v.72a.72.72,0,0,1-.81.81H406.2a.71.71,0,0,1-.8-.81v-.23a2.69,2.69,0,0,0-.58-2,3.08,3.08,0,0,0-2.1-.54h-1.49a2.93,2.93,0,0,0-2.13.59,3.52,3.52,0,0,0-.55,2.32v.73c0,1.19,1,1.88,3.14,2.06a19.41,19.41,0,0,1,5.77,1.3,4.93,4.93,0,0,1,2.24,2,7.13,7.13,0,0,1,.9,3.77v1.3a6.19,6.19,0,0,1-1.68,4.63,6.4,6.4,0,0,1-4.67,1.65h-4.17a6.38,6.38,0,0,1-4.67-1.65A6.19,6.19,0,0,1,393.73,45.15Z"/><path class="cls-1" d="M405.29,84.4V81.48c0-.09,0-.14.15-.14h2.11a.13.13,0,0,1,.14.14V84.4c0,.18.08.27.26.27H409c.18,0,.26-.09.26-.27V76.9c0-.18-.08-.26-.26-.26H408c-.18,0-.26.08-.26.26v2.93a.12.12,0,0,1-.14.14h-2.11c-.1,0-.15,0-.15-.14V76.9a.23.23,0,0,0-.26-.26H404c-.18,0-.27.08-.27.26v7.5a.24.24,0,0,0,.27.27H405a.24.24,0,0,0,.26-.27m-3.37-.26a2,2,0,0,0,.55-1.51V82c0-.18-.09-.27-.28-.27h-1.05a.24.24,0,0,0-.26.27v.52a.78.78,0,0,1-.17.56.75.75,0,0,1-.57.17h-.85a.73.73,0,0,1-.55-.17.78.78,0,0,1-.17-.56V78.75a.79.79,0,0,1,.17-.57.77.77,0,0,1,.55-.17h.85a.63.63,0,0,1,.74.74v.51a.24.24,0,0,0,.26.27h1.05c.19,0,.28-.09.28-.27v-.59a2,2,0,0,0-.55-1.5,2,2,0,0,0-1.51-.53H399a2.09,2.09,0,0,0-1.52.52,2,2,0,0,0-.54,1.51v4a2,2,0,0,0,.54,1.51,2.1,2.1,0,0,0,1.52.53h1.37a2.07,2.07,0,0,0,1.51-.53m-8.95-6,.9,3.61H392l.89-3.61Zm-1.68,6.46a.41.41,0,0,0,.09-.21l.35-1.37h2.43l.35,1.37a.42.42,0,0,0,.08.21.22.22,0,0,0,.18.06H396q.22,0,.15-.27l-2-7.5c0-.18-.17-.26-.38-.26h-1.66a.35.35,0,0,0-.37.26l-2,7.5q-.08.27.15.27h1.2a.22.22,0,0,0,.18-.06m-2.92-.47a2,2,0,0,0,.53-1.51v-4a2,2,0,0,0-.53-1.51,2.1,2.1,0,0,0-1.53-.52h-1.4a2.09,2.09,0,0,0-1.52.52,2,2,0,0,0-.54,1.51v4a2,2,0,0,0,.54,1.51,2.1,2.1,0,0,0,1.52.53h1.4a2.11,2.11,0,0,0,1.53-.53m-3.24-1a.78.78,0,0,1-.16-.56V78.75a.79.79,0,0,1,.16-.57.78.78,0,0,1,.56-.17h.89a.63.63,0,0,1,.74.74v3.81a.78.78,0,0,1-.17.56.75.75,0,0,1-.57.17h-.89a.74.74,0,0,1-.56-.17m-6.74-2.82V78.15c0-.09,0-.14.13-.14h1.23a.85.85,0,0,1,.58.17.74.74,0,0,1,.19.57v1a.67.67,0,0,1-.19.54.81.81,0,0,1-.58.17h-1.23c-.09,0-.13,0-.13-.13m0,4.1V81.84c0-.09.05-.13.15-.13h.83l1.25,2.69a.43.43,0,0,0,.16.22.87.87,0,0,0,.33,0h1q.33,0,.21-.3L381,81.58v0a1.82,1.82,0,0,0,1.11-1.87v-1a2,2,0,0,0-.55-1.51,2.14,2.14,0,0,0-1.53-.53h-3a.23.23,0,0,0-.26.26v7.5a.24.24,0,0,0,.26.27h1.06a.24.24,0,0,0,.27-.27m-6.5-4V78.15A.13.13,0,0,1,372,78h1.32a.75.75,0,0,1,.56.17.79.79,0,0,1,.17.57v1a.77.77,0,0,1-.17.55.75.75,0,0,1-.56.17H372a.13.13,0,0,1-.14-.14m0,4V82c0-.09.05-.13.15-.13h1.58a1.85,1.85,0,0,0,2-2v-1.2a1.85,1.85,0,0,0-2-2h-3.05c-.18,0-.26.08-.26.26v7.5c0,.18.08.27.26.27h1.06a.24.24,0,0,0,.26-.27m-6.49-4V78.15c0-.09,0-.14.13-.14h1.33a.78.78,0,0,1,.56.17.79.79,0,0,1,.16.57v1a.77.77,0,0,1-.16.55.78.78,0,0,1-.56.17h-1.33c-.09,0-.13,0-.13-.14m0,4V82c0-.09.05-.13.15-.13h1.57a2.07,2.07,0,0,0,1.51-.53,2,2,0,0,0,.54-1.51v-1.2a2,2,0,0,0-.54-1.5,2,2,0,0,0-1.51-.53h-3.05a.23.23,0,0,0-.26.26v7.5a.24.24,0,0,0,.26.27h1.06a.24.24,0,0,0,.27-.27m-5.72-6.25.9,3.61h-1.85l.9-3.61ZM358,84.61a.54.54,0,0,0,.08-.21l.35-1.37h2.43l.35,1.37a.42.42,0,0,0,.08.21.22.22,0,0,0,.18.06h1.2q.22,0,.15-.27l-2-7.5a.33.33,0,0,0-.37-.26h-1.67a.35.35,0,0,0-.37.26l-2,7.5q-.08.27.15.27h1.2a.24.24,0,0,0,.18-.06"/><path class="cls-3" d="M348.74,84.4V79.77h.05l2.49,4.65a.44.44,0,0,0,.4.25h.91a.24.24,0,0,0,.27-.27V76.9c0-.18-.09-.26-.27-.26h-1c-.18,0-.26.08-.26.26v4.64h-.05l-2.53-4.73a.34.34,0,0,0-.35-.17h-.93c-.18,0-.27.08-.27.26v7.5a.24.24,0,0,0,.27.27h1a.24.24,0,0,0,.27-.27M343,78.15l.9,3.61h-1.85l.9-3.61Zm-1.68,6.46a.42.42,0,0,0,.08-.21l.35-1.37h2.44l.35,1.37a.43.43,0,0,0,.07.21.24.24,0,0,0,.19.06H346q.22,0,.15-.27l-2-7.5c0-.18-.16-.26-.37-.26h-1.66a.36.36,0,0,0-.38.26l-2,7.5q-.07.27.15.27h1.2a.24.24,0,0,0,.18-.06m-3.68-.21V78.15c0-.09.05-.14.15-.14h1.43a.23.23,0,0,0,.26-.26V76.9a.23.23,0,0,0-.26-.26h-4.73a.23.23,0,0,0-.26.26v.85a.23.23,0,0,0,.26.26H336a.13.13,0,0,1,.14.14V84.4a.24.24,0,0,0,.27.27h1.05a.24.24,0,0,0,.26-.27m-7.87-4.1V78.15A.13.13,0,0,1,330,78h1.22a.87.87,0,0,1,.59.17.74.74,0,0,1,.19.57v1a.67.67,0,0,1-.19.54.82.82,0,0,1-.59.17H330c-.09,0-.14,0-.14-.13m0,4.1V81.84c0-.09.05-.13.15-.13h.84l1.25,2.69a.39.39,0,0,0,.16.22.87.87,0,0,0,.33,0h1q.31,0,.21-.3l-1.34-2.79v0a1.83,1.83,0,0,0,1.12-1.87v-1a2,2,0,0,0-.55-1.51,2.14,2.14,0,0,0-1.53-.53h-3c-.18,0-.26.08-.26.26v7.5c0,.18.08.27.26.27h1.06c.18,0,.26-.09.26-.27m-5.72-6.25.9,3.61h-1.85l.9-3.61Zm-1.68,6.46a.34.34,0,0,0,.08-.21l.35-1.37h2.44l.35,1.37a.56.56,0,0,0,.07.21.25.25,0,0,0,.19.06h1.2q.23,0,.15-.27l-2-7.5a.34.34,0,0,0-.38-.26h-1.66a.34.34,0,0,0-.37.26l-2,7.5q-.08.27.15.27h1.2a.23.23,0,0,0,.18-.06m-5.92-4.23V78.15c0-.09,0-.14.13-.14H318a.78.78,0,0,1,.56.17.79.79,0,0,1,.16.57v1a.77.77,0,0,1-.16.55.78.78,0,0,1-.56.17h-1.33c-.09,0-.13,0-.13-.14m0,4V82c0-.09.05-.13.15-.13h1.57a2.07,2.07,0,0,0,1.51-.53,2,2,0,0,0,.54-1.51v-1.2a2,2,0,0,0-.54-1.5,2,2,0,0,0-1.51-.53h-3a.23.23,0,0,0-.26.26v7.5a.24.24,0,0,0,.26.27h1.06a.24.24,0,0,0,.27-.27"/><path class="cls-3" d="M308.64,84.13a2.1,2.1,0,0,0,1.53.54h1.36a2.06,2.06,0,0,0,1.52-.54,2,2,0,0,0,.55-1.51v-.43a2.38,2.38,0,0,0-.29-1.23,1.58,1.58,0,0,0-.73-.66,6.25,6.25,0,0,0-1.89-.43c-.68-.06-1-.28-1-.67V79a1.15,1.15,0,0,1,.18-.76.93.93,0,0,1,.69-.19H311a1.09,1.09,0,0,1,.69.17.94.94,0,0,1,.18.67v.07a.23.23,0,0,0,.26.26h1.07a.23.23,0,0,0,.26-.26v-.24a2,2,0,0,0-.55-1.51,2.15,2.15,0,0,0-1.54-.53h-1.25a2.11,2.11,0,0,0-1.52.53,2,2,0,0,0-.55,1.51v.44a2.51,2.51,0,0,0,.29,1.27,1.48,1.48,0,0,0,.73.66,6.59,6.59,0,0,0,.95.28,9.34,9.34,0,0,0,.94.14,1.47,1.47,0,0,1,.73.23.63.63,0,0,1,.3.56v.15a1,1,0,0,1-.2.7,1,1,0,0,1-.68.18h-.59a1,1,0,0,1-.68-.17.86.86,0,0,1-.19-.65v-.1a.23.23,0,0,0-.26-.26h-1.06c-.18,0-.27.08-.27.26v.25a2,2,0,0,0,.55,1.51"/><path class="cls-1" d="M291.68,79.38a1.15,1.15,0,0,0-.67-.19,1.21,1.21,0,0,0-.69.19,1.37,1.37,0,0,0-.45.53,1.7,1.7,0,0,0-.17.76,1.73,1.73,0,0,0,.17.76,1.3,1.3,0,0,0,.45.53,1.22,1.22,0,0,0,.69.2,1.15,1.15,0,0,0,.67-.2,1.25,1.25,0,0,0,.46-.53,1.73,1.73,0,0,0,.16-.76,1.7,1.7,0,0,0-.16-.76A1.32,1.32,0,0,0,291.68,79.38Z"/><path class="cls-1" d="M293.49,71.1A9.55,9.55,0,1,0,303,80.65,9.56,9.56,0,0,0,293.49,71.1ZM293,82a2.25,2.25,0,0,1-.77.87,1.93,1.93,0,0,1-1.09.31,1.83,1.83,0,0,1-.66-.11,2.59,2.59,0,0,1-.55-.29l-.21-.19v0a.53.53,0,0,1-.15.39.54.54,0,0,1-.39.15.52.52,0,0,1-.38-.15.53.53,0,0,1-.15-.39V77a.52.52,0,0,1,.15-.38.53.53,0,0,1,.38-.16.55.55,0,0,1,.39.16.52.52,0,0,1,.15.38v1.87a1.87,1.87,0,0,1,.8-.57,1.63,1.63,0,0,1,.59-.11,2,2,0,0,1,1.11.32,2.24,2.24,0,0,1,.78.86,2.75,2.75,0,0,1,.29,1.28A2.77,2.77,0,0,1,293,82Zm5.27.66a2.43,2.43,0,0,1-.3,1.3,1.85,1.85,0,0,1-.82.7,3.07,3.07,0,0,1-1.16.21,4.28,4.28,0,0,1-.6,0,1.64,1.64,0,0,1-.52-.13.75.75,0,0,1-.37-.29.41.41,0,0,1,0-.36.52.52,0,0,1,.26-.35.44.44,0,0,1,.37,0l.37.14a1.47,1.47,0,0,0,.53.09,1.67,1.67,0,0,0,.68-.11.78.78,0,0,0,.41-.37,1.54,1.54,0,0,0,.14-.71v-.1a1.8,1.8,0,0,1-.19.2,1.56,1.56,0,0,1-.54.29,2.55,2.55,0,0,1-.71.09,1.56,1.56,0,0,1-.82-.21,1.52,1.52,0,0,1-.54-.61,1.9,1.9,0,0,1-.2-.88V78.84a.52.52,0,0,1,.15-.38.49.49,0,0,1,.38-.16.48.48,0,0,1,.38.16.52.52,0,0,1,.15.38v2.27a1,1,0,0,0,.26.81,1,1,0,0,0,.7.24,1.09,1.09,0,0,0,.53-.12.75.75,0,0,0,.32-.36,1.2,1.2,0,0,0,.12-.57V78.84a.52.52,0,0,1,.15-.38.53.53,0,0,1,.76,0,.52.52,0,0,1,.15.38Z"/></g></g></svg>