<?xml version="1.0" encoding="utf-8"?>
<!-- Generator: Adobe Illustrator 24.1.0, SVG Export Plug-In . SVG Version: 6.00 Build 0)  -->
<svg version="1.1" id="Layer_1" xmlns="http://www.w3.org/2000/svg" xmlns:xlink="http://www.w3.org/1999/xlink" x="0px" y="0px"
	 viewBox="0 0 32 32" style="enable-background:new 0 0 32 32;" xml:space="preserve">
<style type="text/css">
	.st0{fill:#325898;}
	.st1{fill:#FE7B15;}
</style>
<g>
	<g>
		<g>
			<path class="st0" d="M18.846,25.61057c-0.24516,0-0.47016-0.16219-0.53922-0.40992
				c-0.08297-0.29797,0.09141-0.60672,0.38938-0.68969c3.98315-1.10915,6.7652-4.77511,6.7652-8.91498
				c0-5.10214-4.15096-9.2531-9.25318-9.2531c-5.10206,0-9.25302,4.15096-9.25302,9.2531c0,3.29604,1.77517,6.36871,4.63268,8.01895
				c0.26781,0.15461,0.35969,0.49719,0.205,0.76501c-0.15469,0.26797-0.49766,0.3593-0.765,0.20485
				c-3.20299-1.8497-5.19269-5.29402-5.19269-8.9888c0-5.71972,4.65331-10.37311,10.37303-10.37311
				s10.37319,4.65339,10.37319,10.37311c0,4.64081-3.11893,8.75044-7.58489,9.99389
				C18.94631,25.60386,18.89569,25.61057,18.846,25.61057z"/>
			<path class="st0" d="M16.33989,28.23098c-1.51923,0-2.75533-1.23602-2.75533-2.75533s1.2361-2.75541,2.75533-2.75541
				c1.51938,0,2.75549,1.2361,2.75549,2.75541S17.85928,28.23098,16.33989,28.23098z M16.33989,23.84025
				c-0.90172,0-1.63532,0.7336-1.63532,1.6354c0,0.90172,0.7336,1.63532,1.63532,1.63532c0.90188,0,1.63548-0.7336,1.63548-1.63532
				C17.97537,24.57385,17.24177,23.84025,16.33989,23.84025z"/>
			<path class="st0" d="M12.04768,13.92465c-1.70892,0-3.38768-0.4536-4.85487-1.31173
				c-0.26688-0.15609-0.35672-0.49914-0.20063-0.7661c0.15625-0.26695,0.49953-0.35664,0.76625-0.20063
				c1.29563,0.75782,2.77892,1.15845,4.28924,1.15845c2.89814,0,5.57019-1.45438,7.14785-3.89041
				c0.16813-0.25977,0.51485-0.33367,0.77438-0.1657c0.25969,0.16813,0.33375,0.51485,0.16563,0.77446
				C18.35069,12.27917,15.32723,13.92465,12.04768,13.92465z"/>
			<path class="st0" d="M16.18458,21.68797c-1.54126,0-2.97674-0.61383-4.04206-1.72837
				c-0.21375-0.22359-0.20563-0.57813,0.01797-0.7918c0.22359-0.21375,0.57813-0.20563,0.79172,0.01789
				c0.85188,0.89141,1.99986,1.38227,3.23236,1.38227c1.23423,0,2.38345-0.49219,3.23565-1.38579
				c0.21359-0.22383,0.56782-0.2325,0.79188-0.01875c0.22375,0.21344,0.23219,0.56789,0.01875,0.79172
				C19.16507,21.07258,17.72803,21.68797,16.18458,21.68797z"/>
			<path class="st0" d="M25.61667,13.73097c-0.03828,0-0.07688-0.00391-0.11578-0.01203
				c-3.65846-0.76844-6.56191-3.61963-7.39708-7.26379c-0.06922-0.30141,0.11922-0.6018,0.42063-0.67094
				c0.30235-0.06891,0.60188,0.1193,0.67094,0.42078c0.73797,3.21978,3.30346,5.73894,6.53582,6.41785
				c0.30266,0.06359,0.49641,0.36047,0.43282,0.66313C26.1087,13.54988,25.87589,13.73097,25.61667,13.73097z"/>
		</g>
	</g>
	<path class="st1" d="M16.03803,0.44019C7.4682,0.44019,0.47348,7.40317,0.4737,15.973
		c0,8.56983,6.96299,15.53282,15.53282,15.53282c2.70964,0,5.3876-0.69315,7.71915-2.04782l0.0945-0.06308l4.82053,1.38635
		c0.63008,0.189,1.29184,0,1.73293-0.44108c0.44108-0.47277,0.63009-1.13424,0.44108-1.73293l-1.38658-4.75763l0.06308-0.0945
		c1.3549-2.363,2.0795-5.04113,2.0795-7.78216c0-8.53832-6.96299-15.53282-15.53282-15.53282L16.03803,0.44019z M16.03812,30.30853
		c-7.90819,0-14.33556-6.42737-14.33556-14.30406c0-7.90819,6.42794-14.33556,14.33556-14.33556s14.33536,6.42737,14.30349,14.33556
		c0,2.64657-0.7246,5.23001-2.11095,7.4671l-0.12593,0.22065l1.54389,5.26163c0.06308,0.189,0,0.40966-0.12593,0.53559
		c-0.12593,0.12593-0.34658,0.189-0.53559,0.12593l-5.32447-1.51227l-0.22066,0.12593
		c-2.20558,1.3549-4.78902,2.0795-7.40408,2.0795H16.03812z"/>
</g>
</svg>
